<?xml version="1.0" encoding="UTF-8" standalone="no"?>
<svg
   xmlns:dc="http://purl.org/dc/elements/1.1/"
   xmlns:cc="http://creativecommons.org/ns#"
   xmlns:rdf="http://www.w3.org/1999/02/22-rdf-syntax-ns#"
   xmlns:svg="http://www.w3.org/2000/svg"
   xmlns="http://www.w3.org/2000/svg"
   xmlns:sodipodi="http://sodipodi.sourceforge.net/DTD/sodipodi-0.dtd"
   xmlns:inkscape="http://www.inkscape.org/namespaces/inkscape"
   width="16"
   height="16"
   version="1.1"
   id="svg352"
   sodipodi:docname="process-syncing-down.svg"
   inkscape:version="1.0.2 (1.0.2+r75+1)">
  <metadata
     id="metadata356">
    <rdf:RDF>
      <cc:Work
         rdf:about="">
        <dc:format>image/svg+xml</dc:format>
        <dc:type
           rdf:resource="http://purl.org/dc/dcmitype/StillImage" />
        <dc:title></dc:title>
      </cc:Work>
    </rdf:RDF>
  </metadata>
  <sodipodi:namedview
     pagecolor="#ffffff"
     bordercolor="#666666"
     borderopacity="1"
     objecttolerance="10"
     gridtolerance="10"
     guidetolerance="10"
     inkscape:pageopacity="0"
     inkscape:pageshadow="2"
     inkscape:window-width="1366"
     inkscape:window-height="687"
     id="namedview354"
     showgrid="false"
     inkscape:zoom="25.853592"
     inkscape:cx="7.997489"
     inkscape:cy="7.6469023"
     inkscape:window-x="0"
     inkscape:window-y="32"
     inkscape:window-maximized="1"
     inkscape:current-layer="svg352" />
  <defs
     id="defs348">
    <style
       id="current-color-scheme"
       type="text/css">
   .ColorScheme-Text { color:#dfdfdf; } .ColorScheme-Highlight { color:#4285f4; }
  </style>
  </defs>
  <path
     style="fill:#dfdfdf;fill-opacity:1"
     class="ColorScheme-Text"
     d="M 2,1 C 1.446,1 1,1.446 1,2 V 4.2832 C 1.2965,4.1077 1.636,4 2,4 H 3 4 4.5859 L 6.293,2.293 C 6.4805,2.1054 6.7348,2.0001 7,2 H 8 C 8,1.446 7.554,1 7,1 Z M 7,3 5,5 H 4 3 2 C 1.446,5 1,5.446 1,6 V 7 8 10 11 13 C 1,14.108 1.892,15 3,15 H 13 C 14.108,15 15,14.108 15,13 V 11 10 4 C 15,3.446 14.554,3 14,3 Z M 7,6 H 9 V 10 H 11 L 8,14 5,10 H 7 Z"
     id="path350" />
  <path
     style="fill:#dfdfdf;fill-opacity:1"
     id="path375"
     d="M 7.9788297,7.6324475 C 7.7879478,8.0468424 7.616815,8.4698348 7.4712116,8.9021634 7.3543291,9.286062 7.3186469,9.6419781 7.4054709,10.03372 c 0.045322,0.143149 0.095982,0.28388 0.1308274,0.430153 0,0 0.4837021,-0.26017 0.4837021,-0.26017 v 0 C 8.0031438,10.12515 7.9891707,10.04488 7.9630779,9.9686632 7.9381676,9.8959 7.944521,9.9267415 7.9129312,9.854969 7.9014719,9.8289333 7.8915795,9.8022357 7.8809036,9.775869 7.7649379,9.3995037 7.807472,9.0700608 7.9140114,8.6943291 8.0633567,8.2483228 8.237148,7.8044249 8.491216,7.4064549 c 0,0 -0.5123863,0.2259926 -0.5123863,0.2259926 z" />
  <path
     style="fill:#dfdfdf;fill-opacity:1"
     id="path377"
     d="m 8.1620105,7.9078577 c 0.1084512,0.5919224 0.099287,1.197764 0.095746,1.7970706 -0.00405,0.3754787 -0.020243,0.7505647 -0.041698,1.1253867 -0.00406,0.07099 -0.010483,0.141876 -0.01274,0.212951 -7.772e-4,0.02448 -0.01756,0.08561 0.00365,0.07337 0.1881341,-0.10859 0.352585,-0.253829 0.5288775,-0.380743 C 8.8507808,9.8042112 8.9268845,8.8690088 8.9809505,7.9320078 8.9986639,7.73686 8.9935973,7.5408406 9.00292,7.3453846 9.0139614,7.1138909 9.1478095,6.7356962 8.5050255,7.6027483 c -0.065641,0.088543 2.28e-5,0.2206011 -0.00725,0.3305815 -0.011106,0.1680525 -0.031894,0.3353247 -0.04784,0.5029871 -0.072219,0.5713197 -0.1635069,1.1400405 -0.2709419,1.7057591 -0.022489,0.11842 -0.1075912,0.583272 -0.1678928,0.733171 -0.01645,0.04089 -0.054157,0.06955 -0.081236,0.104328 C 8.0797669,10.850283 8.287038,10.766698 8.3795619,10.591698 8.4390773,10.479131 8.3438637,10.339305 8.3355635,10.212243 8.3225602,10.013187 8.3179449,9.8135985 8.315703,9.6141301 8.3074692,8.8815661 8.3415144,8.1493157 8.371798,7.4176511 8.3809674,7.236144 8.4036744,6.6490836 8.4365097,6.4229417 8.4441651,6.370218 8.5281025,6.2419585 8.4827749,6.2699547 8.3039728,6.38039 8.1081095,6.5009726 8.0096051,6.6866149 c -0.067341,0.1269125 0.020792,0.2867206 0.023728,0.4303627 0.00438,0.2144855 -0.00119,0.429059 -0.00178,0.6435885 -0.011738,0.7780506 -0.060422,1.554986 -0.1253716,2.3302219 -0.018118,0.216261 -0.069907,0.803971 -0.1109877,1.054668 -0.013104,0.07997 -0.038095,0.157524 -0.057142,0.236286 0.1559295,-0.09204 0.3492832,-0.13922 0.4677885,-0.276121 0.052969,-0.06119 -0.018342,-0.161105 -0.019261,-0.242032 -0.00172,-0.151513 0.00341,-0.303111 0.011349,-0.454426 C 8.2289083,9.8184092 8.3050169,9.2334974 8.3841177,8.64778 8.4052377,8.5129158 8.4715357,8.0263166 8.528421,7.8546091 8.539311,7.8217381 8.619454,7.7517822 8.591255,7.7718811 8.4227779,7.8919628 8.2264203,7.989774 8.1043842,8.1568408 c -0.055343,0.075764 0.00401,0.1877325 6.56e-5,0.2814741 -0.00494,0.1172323 -0.017798,0.2339966 -0.026697,0.3509949 -0.040929,0.353577 -0.033468,0.315755 -0.083387,0.650597 -0.011781,0.079021 -0.020642,0.1586239 -0.037309,0.23676 -0.00867,0.040624 -0.076406,0.1354586 -0.038475,0.1185266 0.5719098,-0.2552959 0.4938339,-0.1813699 0.4652599,-0.602382 0.00104,-0.1776298 -0.00277,-0.3553543 0.00313,-0.5328893 0.015014,-0.4523078 0.054851,-0.9477864 0.096937,-1.3976475 0.048568,-0.5191524 0.1086686,-1.035671 0.1907679,-1.550467 0.01975,-0.05556 0.1151253,-0.1855216 0.05925,-0.1666805 -0.1790394,0.060372 -0.348658,0.1679975 -0.4762985,0.3073095 -0.045369,0.049517 0.010045,0.1340503 0.010384,0.2012081 0.0016,0.3166721 -0.031813,0.6306262 -0.065131,0.9449908 -0.012346,0.075654 -0.020596,0.1520922 -0.037037,0.2269633 -0.052054,0.2370448 -0.2772945,0.3775485 0.4439542,-0.1640629 0.022717,-0.017059 4.02e-5,-0.056847 0.00163,-0.085212 0.011789,-0.2103803 0.013201,-0.1810933 0.047132,-0.4074069 0.033806,-0.1755412 0.045951,-0.2505433 0.086935,-0.420054 0.012124,-0.050146 0.019642,-0.1020693 0.039741,-0.1495843 0.0083,-0.019617 0.060709,-0.059305 0.043381,-0.046918 -0.5446571,0.389338 -0.4992915,0.1662463 -0.4351219,0.6128591 0.033595,0.4332915 0.025824,0.8684324 0.00695,1.3021641 C 8.388664,8.1379445 8.3785849,8.4093664 8.3204624,8.6743914 8.4849693,8.5693122 8.6831162,8.5039919 8.8139829,8.3591539 8.8648948,8.3028066 8.8082625,8.2072358 8.8111224,8.1313486 8.815309,8.0202574 8.8247685,7.9093904 8.8351043,7.7987019 8.8473949,7.6670791 8.895135,7.2632297 8.9199307,7.1244554 8.933188,7.050258 8.9545068,6.9777293 8.9717948,6.9043663 c 0.020097,-0.01942 0.083796,-0.073376 0.06029,-0.05826 -0.160519,0.1032255 -0.3419441,0.1841291 -0.4724931,0.3233368 -0.035572,0.037932 0.019753,0.1022632 0.024831,0.1540164 0.018607,0.1896397 0.00925,0.3809179 0.00119,0.5707421 -0.00657,0.038427 -0.055847,0.1299128 -0.019712,0.1152812 C 8.7329127,7.9418568 8.8823693,7.8329151 9.021056,7.7178833 9.041606,7.7008383 9.016646,7.6646593 9.013616,7.6381343 9.0042382,7.5562374 8.990325,7.4748149 8.9838371,7.3926396 8.96262,7.1239047 8.9690647,7.0066384 8.9705404,6.7358272 c 0.00392,-0.099259 0.00525,-0.1986543 0.011745,-0.2977781 0.00452,-0.068933 0.010834,-0.1378621 0.021288,-0.2061478 0.00426,-0.027838 0.048259,-0.093266 0.022731,-0.081372 -0.5995229,0.2793128 -0.4905982,0.1212654 -0.5049295,0.4463683 -0.00275,0.062454 -0.00929,0.1246827 -0.013934,0.1870241 -0.00716,0.062434 -0.014132,0.12489 -0.021472,0.1873033 -0.00643,0.054653 -0.012176,0.1093991 -0.019827,0.1638945 -0.00496,0.035358 -0.00861,0.071145 -0.018005,0.1055908 -0.00199,0.00729 -0.021691,0.020792 -0.015357,0.016673 C 8.9936909,6.8925531 8.9241942,7.1179042 8.9685444,6.7509149 9.0012874,6.61766 9.0080884,6.3379026 9.0931088,6.2258513 c 0.012461,-0.016423 0.07604,-0.030145 0.059005,-0.018535 -0.4980271,0.3394261 -0.5157381,0.1148486 -0.4490627,0.4036865 0.00485,0.097713 0.039281,0.2641827 0.016107,0.3603699 -0.00381,0.015798 -0.043903,0.0468 -0.029953,0.038464 0.4873589,-0.291209 0.5989668,-0.1929015 0.3968359,-0.3271061 0,0 -0.4709637,0.2931522 -0.4709637,0.2931522 v 0 c 0.1877033,0.2002543 0.061846,0.1050146 0.5858743,-0.203317 0.014205,-0.00836 0.0043,-0.032788 0.00417,-0.04927 C 9.2041239,6.6010826 9.1857085,6.47926 9.180044,6.3573201 9.1390564,6.0509619 9.1991123,6.1850924 8.6282075,6.4150283 c -0.013407,0.0054 -0.015138,0.025002 -0.019227,0.038865 -0.023079,0.07824 -0.052534,0.2524086 -0.065441,0.3173547 -0.013765,0.069262 -0.028623,0.1383021 -0.042935,0.2074531 -0.083052,0.3426791 -0.1044362,0.2080078 0.4488278,0.022664 0.00432,-0.00145 -0.012409,3.746e-4 -0.013022,-0.00414 -0.00429,-0.03159 -0.00199,-0.063792 -5.324e-4,-0.095639 0.00243,-0.05322 0.00719,-0.1063208 0.012176,-0.1593631 0.00587,-0.062429 0.013578,-0.1246712 0.020367,-0.1870069 0.00899,-0.06466 0.016675,-0.1295147 0.026966,-0.1939804 0.00828,-0.051863 0.081064,-0.1593425 0.028731,-0.1549161 -0.1762915,0.014911 -0.3380818,0.1105312 -0.4939341,0.1942633 -0.018912,0.010161 0.014354,0.040908 0.016432,0.062276 0.012172,0.1251049 0.00868,0.3774498 0.0089,0.4840607 -0.00296,0.3334424 -0.00197,0.3375968 -0.00906,0.6710424 -0.00191,0.089714 -0.010419,0.1794577 -0.00677,0.269118 0.00247,0.06062 -0.03403,0.1940671 0.025052,0.1802775 0.1852655,-0.04324 0.3402958,-0.1769846 0.4858271,-0.2995149 0.027923,-0.02351 -1.65e-5,-0.073005 -2.47e-5,-0.1095073 -0.00151,-0.1921211 2.555e-4,-0.3843334 -0.00216,-0.576435 -7.484e-4,-0.059471 0.05499,-0.1773404 -0.00448,-0.1783697 -0.521034,-0.00902 -0.5057992,0.00547 -0.5268564,0.2231815 -0.037862,0.410232 -0.081216,0.819745 -0.1509113,1.2260124 C 8.3514465,8.438333 8.2312333,8.5929358 8.3166746,8.6085651 8.4857674,8.6394963 8.6397734,8.491076 8.8013227,8.4323314 8.7623223,8.1840893 8.7768672,7.9249663 8.7805378,7.6749859 8.787064,7.2305379 8.8053839,6.786502 8.8250835,6.3424781 8.8380093,5.9012621 8.9295637,5.9734966 8.3158804,6.1824936 c -0.014866,0.00506 -0.00434,0.031112 -0.00693,0.046603 -0.010954,0.065686 -0.049453,0.2845595 -0.058545,0.3347229 -0.013582,0.074933 -0.027737,0.1497617 -0.041606,0.2246425 -0.00956,0.049024 -0.07259,0.3668423 -0.081517,0.431208 -0.00636,0.045826 -0.055617,0.14925 -0.010646,0.1383845 0.5686596,-0.1373962 0.4904798,-0.093219 0.500789,-0.3564035 0.00281,-0.071742 0.00746,-0.1433999 0.011189,-0.2150999 0.024264,-0.3207872 0.05106,-0.6408181 0.091027,-0.9601198 0.00979,-0.078193 0.1110395,-0.2256264 0.032698,-0.2341365 -0.1741648,-0.018919 -0.3462838,0.087304 -0.4922247,0.1842189 -0.03835,0.025467 0.00475,0.09195 0.00712,0.1379255 C 8.2304206,7.0829462 8.1293057,8.2497291 7.95928,9.4065127 7.896584,9.8214492 7.785339,9.9067259 8.4054118,9.5576224 8.4353187,9.5407847 8.4037855,9.4889375 8.405507,9.4546598 8.4128735,9.3079857 8.4360528,9.070218 8.4500794,8.9327349 8.4618886,8.8169854 8.4750379,8.7013765 8.4875171,8.5856972 8.5026328,8.4651268 8.5168717,8.3444432 8.532864,8.2239859 8.5465028,8.1212551 8.6695257,7.9616358 8.5764074,7.9161537 7.5945569,7.4365852 8.1049985,7.9141453 8.1026801,8.0638155 c -0.00152,0.098166 -0.01109,0.196069 -0.01946,0.2938891 -0.013167,0.1538839 -0.030096,0.3074228 -0.045144,0.4611342 -0.064512,0.5932893 -0.1314838,1.1858802 -0.2145796,1.7769262 -0.022861,0.162608 -0.048251,0.324851 -0.072727,0.487225 -0.014895,0.09882 -0.1438939,0.279527 -0.045387,0.296338 0.1749615,0.02986 0.3228288,-0.147628 0.4842433,-0.221442 -0.016143,-0.405059 -0.00353,-0.810051 0.011337,-1.215074 0.028695,-0.7815575 0.075439,-1.5624691 0.1468094,-2.3413496 0.021768,-0.2253661 0.040917,-0.4510007 0.065304,-0.6760985 0.017132,-0.1581324 0.1706798,-0.3599859 0.059243,-0.4734814 -0.109868,-0.1118979 -0.321154,2.932e-4 -0.4668206,0.058374 -0.036912,0.014718 0.028964,0.074951 0.033398,0.1144415 0.029451,0.2623121 0.025552,0.7105484 0.028175,0.9471674 -0.00308,0.2305744 -0.00341,0.4612019 -0.00923,0.6917233 -0.014955,0.5919505 -0.034087,0.9276348 -0.071668,1.5176256 -0.013437,0.2109559 -0.029965,0.4217037 -0.044211,0.6326067 -0.0096,0.142088 -0.1434826,0.343977 -0.027319,0.426362 0.1405424,0.09968 0.3400185,-0.05601 0.5100278,-0.08401 0.051153,-0.259722 0.075065,-0.527333 0.1119158,-0.7890404 0.080399,-0.5709904 0.1693707,-1.1408454 0.2737125,-1.7079905 0.033522,-0.176635 0.065151,-0.3536396 0.1005654,-0.5299049 0.024311,-0.1210049 0.1836536,-0.2970541 0.078596,-0.361831 -0.1358123,-0.08374 -0.3179883,0.056626 -0.4619201,0.1254799 -0.025972,0.012425 0.026631,0.052045 0.031513,0.080419 0.02416,0.1403999 0.029751,0.431152 0.034657,0.5546195 1.743e-4,0.1399349 0.00368,0.2799053 5.228e-4,0.4198048 -0.018292,0.8113514 -0.1074629,1.6357096 -0.3408411,2.4150106 0.1476952,-0.03984 0.2998807,-0.06572 0.4430855,-0.119508 0.015754,-0.0059 -0.03461,-0.01605 -0.038752,-0.03236 -0.016056,-0.06322 -0.01596,-0.129611 -0.01893,-0.194774 -0.016771,-0.368042 0.00469,-0.7373881 0.00133,-1.1054855 0.00935,-0.623496 0.017528,-1.2470373 0.024263,-1.8705526 0,0 -0.5023746,0.2678034 -0.5023746,0.2678034 z" />
  <path
     style="fill:#dfdfdf;fill-opacity:1"
     id="path381"
     d="M 10.76722,7.4925451 C 10.260556,7.6335045 9.7428443,7.7731627 9.2804844,8.0317518 9.0561411,8.1572228 8.8378564,8.293232 8.6165424,8.4239721 8.347933,8.6173655 8.1144912,8.852452 7.9866647,9.162631 c -0.065021,0.1577774 -0.065426,0.2148382 -0.093418,0.3800041 -0.034319,0.4188073 0.02261,0.8385679 0.059635,1.2554299 0.03256,0.348337 0.016138,0.702049 0.076391,1.047443 0.019672,0.05626 0.025087,0.09923 0.074383,0.138524 0.1368427,0.109074 0.44045,0.06196 0.5948294,0.0493 0.2171586,-0.03693 0.3567689,-0.05194 0.5694457,-0.126871 0.359309,-0.126596 0.7252506,-0.359323 1.0260382,-0.563045 0.159985,-0.108357 0.407753,-0.364251 0.54652,-0.501003 0.16322,-0.175424 0.328129,-0.351675 0.469261,-0.545976 0.03577,-0.04924 0.108106,-0.138324 0.03402,-0.151719 -0.05101,-0.0092 -0.101978,0.01868 -0.152967,0.02802 -0.906369,0.499305 -1.7464433,1.104817 -2.5721049,1.725511 -0.1952319,0.149768 -0.3862716,0.304744 -0.5761058,0.461227 -0.028668,0.02363 -0.1189182,0.0883 -0.086274,0.07056 0.537425,-0.292019 0.2694171,-0.237149 0.5194337,-0.280447 0.043228,-0.06168 0.084189,-0.125018 0.1296841,-0.185049 0.4484266,-0.591702 0.9537435,-1.140761 1.4604369,-1.682366 0.06432,-0.05549 0.271459,-0.198932 0.192956,-0.166474 -0.0158,0.0065 -0.3651533,0.189938 -0.443702,0.31843 -0.047427,0.07758 -0.080538,0.163188 -0.1258243,0.242039 -0.1000989,0.174286 -0.3221207,0.515137 -0.4264005,0.677571 -0.2384379,0.344605 -0.4514677,0.707952 -0.6990857,1.046326 -0.021394,0.02923 -0.102844,0.09758 -0.069411,0.08363 0.1830899,-0.0764 0.3519101,-0.183284 0.5278651,-0.274926 0.029162,-0.06256 0.055511,-0.126502 0.087486,-0.187667 0.1341853,-0.25669 0.2853407,-0.505209 0.4370479,-0.751622 0.2303226,-0.374105 0.4693975,-0.740865 0.7209405,-1.100922 0.03799,-0.0446 0.168259,-0.155844 0.113968,-0.133815 -0.196341,0.07967 -0.3892325,0.178637 -0.5536937,0.312238 -0.08656,0.07032 -0.1163401,0.19039 -0.1787832,0.282792 -0.1003188,0.148449 -0.2044109,0.294339 -0.309361,0.439551 -0.1363575,0.188668 -0.6354469,0.857338 -0.7727216,1.041644 -0.1457766,0.19292 -0.4862213,0.646206 -0.6488537,0.851918 -0.074644,0.09442 -0.1471908,0.190888 -0.2289901,0.279179 -0.047802,0.05159 -0.2204762,0.172617 -0.1586022,0.139171 0.485156,-0.262253 0.3985375,-0.161338 0.5300707,-0.515045 0.066316,-0.133021 0.1272404,-0.268869 0.1989496,-0.399062 0.1878665,-0.341084 0.420347,-0.698311 0.6336087,-1.022682 0.2726686,-0.41473 0.5577119,-0.820187 0.8453375,-1.224558 -0.3563361,0.15876 0.410418,-0.3911578 0.267564,-0.35341 -0.185765,0.049087 -0.3603192,0.138152 -0.5266053,0.23442 -0.045065,0.02609 -0.060611,0.0848 -0.093927,0.124824 -0.1590187,0.191017 -0.2250014,0.248805 -0.4083476,0.434146 -0.3554703,0.312647 -0.1779884,0.161395 -0.5320343,0.454238 0,0 0.4317169,-0.174381 0.4317169,-0.174381 v 0 c 0.3453386,-0.293001 0.1690507,-0.140844 0.5284109,-0.456993 0.4566825,-0.445548 0.05639,-0.05066 0.4585858,-0.458453 0.047292,-0.04795 0.2099206,-0.1529842 0.1434256,-0.142304 -0.5203219,0.083571 -0.4089705,0.070726 -0.54517,0.30045 -0.043442,0.07327 -0.089885,0.144723 -0.1348273,0.217085 -0.2542959,0.398649 -0.5108226,0.795873 -0.7691069,1.191953 -0.1706469,0.261688 -0.5135334,0.779446 -0.6799211,1.04636 -0.088817,0.142479 -0.1724078,0.288149 -0.2586117,0.432224 -0.041349,0.09752 -0.225683,0.262726 -0.1240469,0.292569 0.3879445,0.113909 0.6423082,-0.333257 0.8083136,-0.56632 0.6088826,-0.854838 -0.1275202,0.169944 0.590683,-0.826659 0.3817488,-0.513466 0.7707422,-1.019703 1.1699613,-1.519738 0.08548,-0.107071 0.345199,-0.214445 0.257905,-0.320045 -0.25028,-0.30276 -0.4201317,0.103714 -0.4813581,0.225779 -0.4270826,0.706193 -0.8711563,1.401434 -1.3300173,2.087409 0.1618307,-0.05947 0.329959,-0.104018 0.4854922,-0.178421 0.024119,-0.01154 0.02361,-0.04801 0.036641,-0.07135 0.030035,-0.05381 0.061076,-0.10706 0.092523,-0.160058 0.171306,-0.288698 0.350057,-0.573015 0.534159,-0.853706 0.154723,-0.233167 0.3135692,-0.463604 0.4663782,-0.69803 0.05851,-0.08975 0.12864,-0.173844 0.170474,-0.272475 0.02488,-0.05866 0.08803,-0.201501 0.02545,-0.189465 -0.195921,0.03768 -0.358563,0.177135 -0.5259338,0.285726 -0.060287,0.03911 -0.1008335,0.102425 -0.1512502,0.153637 -0.2832815,0.324865 -0.5650932,0.65105 -0.8496556,0.974794 -0.2134759,0.242869 -0.4317775,0.481489 -0.6438462,0.725588 -0.061078,0.0703 -0.1194456,0.142914 -0.1791684,0.214371 -0.00561,0.04552 -0.060711,0.149901 -0.016837,0.136548 0.339842,-0.103426 0.4633932,-0.255686 0.6870928,-0.450278 0.1531193,-0.133196 0.227382,-0.192014 0.3925019,-0.327786 0.3522567,-0.273977 0.7089341,-0.540545 1.0768385,-0.793413 0.14519,-0.09979 0.295789,-0.191674 0.439388,-0.293742 0.0047,-0.0034 -0.02057,-0.0043 -0.0157,-0.0074 0.07534,-0.04861 0.155773,-0.08881 0.23366,-0.13322 0.02843,-0.02284 0.05649,-0.04616 0.0853,-0.06852 0.0045,-0.0035 0.01646,-0.01422 0.01448,-0.0089 -0.02394,0.06408 -0.09551,0.160015 -0.12936,0.205264 -0.13274,0.17744 -0.166785,0.207806 -0.323901,0.385752 -0.08225,0.08141 -0.160693,0.166859 -0.246744,0.244241 -0.09577,0.08612 -0.2075868,0.154188 -0.2981564,0.245761 -0.020167,0.02039 0.1075475,-0.03938 0.081715,-0.02692 -0.1008701,0.04864 -0.2018648,0.09805 -0.3073251,0.135721 -0.2042752,0.07297 -0.3306289,0.08336 -0.5389182,0.115629 -0.1283117,0.0077 -0.4043305,0.03904 -0.5256862,-0.03632 -0.043874,-0.02725 -0.05114,-0.06336 -0.071734,-0.108155 C 8.4207718,11.254898 8.4288456,10.906363 8.4002411,10.565226 8.3651377,10.150654 8.3124872,9.7322515 8.3567598,9.3165108 8.3845761,9.1632417 8.3875306,9.0993903 8.4493585,8.9537186 8.5746984,8.6584072 8.8023707,8.4353008 9.0601067,8.2521832 c -0.04817,0.023763 -0.1922368,0.095927 -0.1445092,0.071288 0.09845,-0.050824 0.1959485,-0.1037302 0.296688,-0.149849 0.3586048,-0.1641703 0.7386532,-0.279534 1.1252825,-0.3551708 0,0 0.429652,-0.3259065 0.429652,-0.3259063 z" />
  <path
     style="fill:#dfdfdf;fill-opacity:1"
     id="path389"
     d="m 6.1396256,7.0308707 c 0.010271,0.026027 0.025365,0.050635 0.030812,0.07808 0.02544,0.128179 0.011814,0.2252629 -0.012705,0.3567103 C 6.1020947,7.7639451 5.9881226,8.0368395 5.8719403,8.3152655 5.7080594,8.7021769 5.5190089,9.077405 5.3147132,9.444313 c 0,0 3.2075011,-1.5057096 3.2075011,-1.5057096 v 0 C 8.5271722,7.6109475 8.6353544,7.297657 8.7354205,6.9886705 8.909524,6.5141037 9.1174841,5.9935849 9.4795223,5.6277604 c 0.040238,-0.040659 0.088911,-0.071999 0.1333663,-0.1079979 0,0 -3.473263,1.5111082 -3.473263,1.5111082 z" />
  <path
     style="fill:#dfdfdf;fill-opacity:1"
     id="path391"
     d="m 5.7516634,6.8948143 c 0.113624,0.102879 0.1972736,0.2484296 0.2518811,0.3910961 0.031645,0.082676 0.059118,0.2160705 0.078826,0.3018913 0.044707,0.2814011 0.088545,0.563112 0.1273177,0.8454865 0.029452,0.2325744 0.065456,0.4662919 0.06787,0.7012965 0.0013,0.1267179 -0.010078,0.2412998 -0.019699,0.3671937 -0.038977,0.3086226 -0.01401,0.6186586 0.016769,0.9268156 0.025701,0.140543 0.03959,0.195402 0.050007,0.339434 0.00403,0.05576 -9.158e-4,0.112049 0.00494,0.167648 0.019315,0.183299 0.075655,0.358881 0.1349763,0.531965 0.1066799,0.35483 0.1417634,0.727137 0.1586303,1.095923 0.010451,0.153543 0.021463,0.307304 0.01432,0.461215 0.00982,0.09272 0.00269,0.184373 0.01404,0.277126 0.046953,0.121969 0.1020553,0.319707 0.017549,0.438734 -0.011579,0.01631 -0.03172,0.02438 -0.04758,0.03656 -0.9983443,-0.948447 -0.1642668,-0.09986 3.1884639,-1.90655 0.01335,-0.0072 0.00184,0.03201 0.010906,0.04417 0.00435,0.0058 0.027919,-0.0042 0.021812,-2.98e-4 -3.2287143,2.085794 -4.4442556,1.671414 -3.1840206,2.087499 0.070232,0.04226 0.139868,0.08319 0.2142907,0.118168 0.084095,0.02459 0.1520502,0.0788 0.2270056,0.120101 0.08045,0.02877 0.1605672,0.05988 0.229693,0.111808 0.072044,0.04931 0.1321685,0.112687 0.2009934,0.166044 0.058167,0.02112 0.1016235,0.05943 0.143097,0.103805 1.1027085,-0.639178 2.2164817,-1.259637 3.3081252,-1.917534 0.01941,-0.01169 -0.01651,-0.04309 -0.0173,-0.06573 -6.89e-4,-0.01963 0.0071,-0.03874 0.01297,-0.05748 0.02834,-0.09052 0.07215,-0.177083 0.111685,-0.262967 0.04711,-0.131099 0.147853,-0.254567 0.15859,-0.398089 0.0017,-0.02299 -0.0029,-0.04601 -0.0044,-0.06901 -0.01611,-0.159078 -0.0028,-0.318245 -0.0088,-0.477722 -0.0012,-0.140745 0.04196,-0.27428 0.06988,-0.410443 0.01546,-0.07539 0.02824,-0.151311 0.04293,-0.226857 0.062,-0.314964 -0.0064,-0.628835 -0.05358,-0.9401552 -0.04209,-0.2399766 -0.01418,-0.4876512 -0.05785,-0.7266651 -0.0061,-0.02448 -0.01937,-0.088033 -0.03437,-0.1102349 -0.841444,-1.2457062 -1.174402,0.3456958 -3.3501809,1.8572062 -0.038512,0.02675 0.059923,0.07355 0.07907,0.116356 0.026626,0.05953 0.037813,0.124821 0.056719,0.187231 0.00366,0.08918 0.016465,0.178459 0.010973,0.267548 -0.028127,0.456273 -0.232974,0.957094 -0.4151411,1.374022 -0.085043,0.164398 -0.1625146,0.358534 -0.3135243,0.477243 -0.047359,0.03723 -0.08917,0.04835 -0.1440441,0.06901 -1.2485605,0.174796 -0.1036977,0.02416 3.0038444,-1.759213 0.02615,-0.01501 -0.05018,0.03381 -0.0774,0.04677 -0.079588,0.03789 -0.1514163,0.04527 -0.2372672,0.03841 -1.064925,-0.745791 -0.1755326,-0.139334 -3.2924542,1.88225 -0.048092,0.03119 0.051092,0.102764 0.080611,0.151901 0.026702,0.04445 0.061571,0.08368 0.087791,0.128412 0.072457,0.123621 0.067155,0.137982 0.1047415,0.273329 0.00495,0.04226 0.017321,0.0843 0.014865,0.126775 -0.00108,0.01872 -0.022971,0.143185 -0.08905,0.117251 -0.042052,-0.01651 -0.138789,-0.06846 -0.099947,-0.09153 3.3038561,-1.962116 3.162201,-3.05532 3.3088999,-1.750023 -0.072218,-0.0267 -0.088939,-0.10803 -0.1234288,-0.169753 -0.046009,-0.08234 -0.048894,-0.08232 -0.1037007,-0.161411 -0.026297,-0.02879 -0.052366,-0.05778 -0.078891,-0.08636 C 9.5212401,11.943602 9.4227009,11.833583 9.3365415,11.708509 9.2383571,11.56598 9.2070147,11.503204 9.1201233,11.350851 8.9696126,11.067062 8.8271293,10.778674 8.6686366,10.499154 8.5990148,10.376368 8.4634775,10.158527 8.39021,10.039436 8.1352158,9.6551139 7.8931568,9.2628589 7.6980026,8.8445678 7.5640588,8.4962875 7.7167388,8.9217133 7.6439456,8.6417009 7.6346899,8.6060971 7.6368814,8.5216926 7.6042708,8.5387175 6.4787082,9.1263338 5.3590139,9.7292136 4.2797288,10.398039 c -0.021765,0.01349 0.1573448,0.242728 0.1688274,0.258002 0.1847875,0.303421 0.1778648,0.660366 0.1585204,1.003004 9.915e-4,0.113101 0.0081,0.226729 -0.00517,0.339473 -0.0032,0.02721 0.00259,0.0592 -0.014032,0.08097 -0.012738,0.01668 -0.07881,0.02742 -0.060669,0.01686 1.0827091,-0.63016 2.1707466,-1.25112 3.2561199,-1.876679 -0.036017,-0.0022 -0.074411,0.0066 -0.1080497,-0.0065 C 7.3931276,10.103739 7.1767433,9.7745441 7.0521734,9.5144735 7.0168761,9.4407817 6.9914153,9.3627699 6.9610363,9.2869181 6.8860046,9.0282097 6.8251539,8.758788 6.8274109,8.487688 6.8279167,8.426935 6.827768,8.3655941 6.8382085,8.3057427 6.8479121,8.250116 6.8710196,8.1976807 6.8874252,8.1436497 7.0168869,7.8875061 7.2829426,7.7695076 7.4906949,7.5908592 7.538952,7.5493624 7.58166,7.5018183 7.6271425,7.4572978 7.9576617,7.0966614 8.2039348,6.6706411 8.45008,6.2507404 8.6287316,5.9322196 8.8274272,5.6233825 9.0577482,5.3395441 9.1213851,5.2512592 9.1791363,5.1572493 9.2510249,5.0751354 9.283368,5.0381919 9.3200198,5.005194 9.3526593,4.9685121 9.3899843,4.9209726 9.4375461,4.8901273 9.4897256,4.8620823 8.4240868,5.4960085 7.38207,6.1714427 6.2928091,6.7638609 6.1290532,6.8529231 6.2343923,6.6139617 6.2407468,6.5977501 c 0.01291,0.00759 0.027826,0.012494 0.038728,0.022756 0.023248,0.021884 0.056665,0.079607 0.072482,0.1056069 0.05352,0.087975 0.1044011,0.1749569 0.1521953,0.2663459 0.07184,0.1557534 0.092857,0.3224815 0.099138,0.4919492 0.00511,0.1378935 -0.00602,0.1422723 0.00549,0.2742691 0.00348,0.039892 0.010843,0.079348 0.016265,0.1190223 0.013524,0.1124293 0.053736,0.2165652 0.087817,0.3232349 0.012064,0.037759 0.020355,0.076642 0.031993,0.1145347 0.039551,0.1287739 0.050525,0.148755 0.1021386,0.2801645 0.08721,0.2554029 0.1105872,0.5244898 0.1468483,0.78993 0.020348,0.1489496 0.044539,0.2973494 0.066301,0.446099 0.052748,0.2686954 0.095685,0.5397714 0.1070989,0.8137924 0.011558,0.277485 -0.00532,0.557233 -0.00619,0.834884 0.026138,0.501403 -0.068385,0.94789 -0.2154095,1.421391 -0.034303,0.103226 -0.077967,0.205242 -0.095066,0.313476 -0.0091,0.05764 -0.00286,0.08774 -0.013123,0.145016 -0.00468,0.02611 -0.013107,0.0514 -0.01966,0.0771 -0.010984,0.02353 -0.00792,0.06368 -0.032952,0.07059 -0.033739,0.0093 -0.1294619,-0.01629 -0.099317,-0.03408 1.0529844,-0.62123 2.1359045,-1.190322 3.1987632,-1.794501 0.027639,-0.01571 -0.060329,0.0357 -0.091174,0.028 C 9.6669814,11.67584 9.5519673,11.529713 9.4719964,11.44876 9.4110204,11.366759 9.3421634,11.29007 9.2890695,11.202759 9.1486546,10.971846 9.0673244,10.74576 8.9898255,10.48684 8.8878192,10.146042 8.8330874,9.8979538 8.8064092,9.5401368 8.794126,9.3753911 8.8014905,9.2097675 8.7990311,9.0445829 8.8354607,8.640683 8.8279884,8.5860662 8.9065503,8.2055801 8.9277018,8.1031404 8.9459856,7.9991503 8.9823225,7.9010641 9.0094894,7.827731 9.0405108,7.7511658 9.0954939,7.6955543 9.132353,7.6582741 9.2880295,7.6132749 9.2420178,7.6384013 8.147273,8.2362285 7.0461484,8.8222982 5.9482137,9.4142467 c 0.046012,0.031783 0.099614,0.054715 0.1380352,0.095348 0.2227521,0.2355714 0.3127017,0.5723593 0.3912538,0.8763233 0.066697,0.25809 0.1181267,0.519889 0.1785045,0.779531 0.094893,0.400354 0.1890011,0.801183 0.2769877,1.203125 0.028977,0.132373 0.1082314,0.545356 0.1445058,0.687601 0.024152,0.09471 0.055998,0.187283 0.083997,0.280924 0.073742,0.226461 0.2014785,0.425252 0.3217424,0.628017 0.014545,0.02452 0.126539,0.229531 0.1541815,0.257801 0.041399,0.04234 0.095414,0.07016 0.143121,0.105238 1.0625922,-0.635172 2.1544435,-1.223778 3.1877764,-1.905517 0.05317,-0.03508 -0.01001,-0.127116 -0.01031,-0.190812 -3.77e-4,-0.08035 0.003,-0.160723 0.0083,-0.240895 0.02174,-0.329591 0.07917,-0.656202 0.12196,-0.983448 0.05307,-0.377508 0.07877,-0.757671 0.08301,-1.1387123 0.0015,-0.1315607 -0.0029,-0.263136 -0.002,-0.3947016 3.56e-4,-0.05063 0.01361,-0.6804355 0.01493,-0.7437552 0.0068,-0.4221477 0.05847,-0.8427333 0.04592,-1.2651622 -0.0014,-0.027528 0.0055,-0.056825 -0.0043,-0.082584 -0.546082,-1.433586 -2.0121073,0.9111452 -3.2956784,1.8180978 -0.045676,0.032274 0.057483,0.096659 0.07701,0.1490671 0.058849,0.1579462 0.068913,0.2961304 0.093378,0.4630515 0.031676,0.4538769 0.1421419,0.8997409 0.16845,1.3540189 0.020172,0.34833 -6.931e-4,0.462126 -0.02839,0.805405 -0.067078,0.4272 -0.1614232,0.856459 -0.3538448,1.246268 -0.064065,0.107313 -0.1107499,0.174623 -0.2171275,0.24188 -0.021182,0.01339 -0.040727,0.03003 -0.063854,0.03968 -0.025349,0.01058 -0.053243,0.01354 -0.079864,0.02031 1.0005454,-0.579886 2.0019793,-1.158242 3.0016357,-1.739658 0.04555,-0.0265 -0.09096,0.05376 -0.13925,0.07485 -0.05346,0.02334 -0.108583,0.04354 -0.16508,0.05804 -0.2668163,0.06849 -0.4161225,0.03168 -0.6795834,-0.02249 C 9.4591196,11.858838 9.371601,11.833568 9.2900991,11.794328 9.0529912,11.680147 8.8292209,11.500056 8.6577917,11.300909 8.5086048,11.1276 8.4903394,11.06303 8.3872535,10.862249 8.3611165,10.781499 8.328054,10.702672 8.3088425,10.620001 8.2452814,10.346486 8.2702535,10.072782 8.3117378,9.7984563 8.3281485,9.6899359 8.344369,9.5811598 8.3691092,9.4742303 8.3976696,9.3507894 8.437337,9.2301845 8.4714509,9.1081616 8.7180259,8.2493128 9.1398969,7.4549541 9.6032112,6.6956376 9.6576882,6.6136625 9.7068504,6.5278953 9.7666423,6.4497123 10.488614,5.5056727 13.849515,4.5420811 6.8628366,8.1953795 6.7809942,8.2381745 6.7742304,8.0327354 6.7407375,7.9466668 c -0.021362,-0.054894 0.070341,0.097732 0.085496,0.1546527 0.022593,0.084854 0.016993,0.1747962 0.02549,0.2621943 -0.00753,0.1083027 -0.00989,0.2170895 -0.022586,0.3249082 -0.027558,0.2339619 -0.082315,0.4731686 -0.1302346,0.7033119 -0.069759,0.3350312 -0.1432455,0.6666991 -0.2304302,0.9976311 -0.06538,0.235959 -0.1665762,0.457576 -0.2740814,0.676373 0,0 3.1676611,-1.5330873 3.1676611,-1.5330873 v 0 C 9.3305103,9.3567883 9.3077318,9.18054 9.3191251,9.0009585 9.3487041,8.6831921 9.391617,8.3715531 9.4454235,8.0569067 9.5076088,7.6932629 9.5702264,7.328727 9.6828854,6.9763751 9.7239636,6.8574268 9.7615445,6.7372126 9.8061198,6.6195301 9.8465663,6.5127481 9.9376734,6.4174912 9.9378279,6.3033058 9.9380558,6.1349247 9.960836,5.7464159 9.8072082,5.8153418 8.6901466,6.3165171 7.7298584,7.1117333 6.6911836,7.7599291 c 0.011045,0.031104 0.030156,0.060439 0.033135,0.093311 0.00523,0.05766 -0.00597,0.115639 -0.00896,0.1734585 -0.01298,0.080627 -0.021722,0.1620512 -0.03894,0.2418805 -0.157074,0.7282754 -0.5170581,1.3919613 -0.8281848,2.0617709 -0.1187775,0.268864 -0.2574161,0.55442 -0.3370955,0.83971 -0.09104,0.325967 -0.1080497,0.676327 -0.027212,1.006248 0.024477,0.0999 0.066938,0.194509 0.1004068,0.291763 0.1363674,0.247407 0.1449162,0.290171 0.3261387,0.509448 0.2512464,0.304005 0.5745929,0.533571 0.8993027,0.751963 0.1933056,0.111632 0.3897587,0.228215 0.6110924,0.276796 1.2866433,0.282409 3.2207621,-2.802792 3.5011281,-1.823643 0.04626,-0.05391 0.09806,-0.108108 0.133234,-0.170836 0.06327,-0.112832 0.08693,-0.248489 0.104136,-0.374437 -0.0013,-0.03496 3.9e-4,-0.07017 -0.004,-0.104892 -0.0104,-0.08298 -0.03929,-0.165155 -0.06202,-0.244814 -0.06471,-0.22679 -0.12612,-0.454723 -0.170725,-0.686492 -0.0399,-0.341132 -0.05925,-0.409336 -0.05068,-0.7662491 0.0035,-0.1444319 0.01772,-0.2884191 0.0292,-0.4324355 0.0283,-0.3548859 0.06692,-0.7090583 0.09633,-1.0638647 0.02985,-0.2122288 0.03673,-0.3445386 0.109652,-0.5460898 0.02519,-0.06963 0.162142,-0.2350775 0.09702,-0.1998376 -1.2254106,0.6630888 -3.0438374,2.8460597 -3.2292701,1.6216896 -0.00258,-0.017047 0.029567,0.017744 0.04435,0.026616 0.2456631,0.2381202 0.3341915,0.590482 0.4178573,0.9102691 0.041806,0.271708 0.068793,0.392683 0.075866,0.673553 0.012759,0.506684 -0.065168,1.013091 -0.1530573,1.510166 -0.085792,0.356754 -0.1676729,0.707507 -0.3355458,1.037078 -0.048099,0.09443 -0.099305,0.188367 -0.1636659,0.272559 -0.051352,0.06717 -0.1204986,0.118649 -0.1807479,0.177974 1.0081007,-0.56881 2.0162013,-1.13762 3.0243027,-1.70643 -0.01011,0.04642 0.0031,0.105544 -0.03033,0.139265 -0.02677,0.02697 -0.07705,0.01551 -0.113838,0.006 -0.05087,-0.01316 -0.09611,-0.0434 -0.140349,-0.07175 C 10.242261,12.075903 10.10041,11.916777 9.9804957,11.745596 9.8139412,11.490445 9.6524224,11.235303 9.5416297,10.949388 9.3961636,10.573994 9.3140262,10.175474 9.2460903,9.7802461 9.157393,9.2604895 9.0549127,8.7332273 9.0876036,8.2028917 9.1025613,7.9602358 9.1367094,7.8416068 9.1868083,7.6149344 8.0721476,8.1622861 6.9574868,8.7096379 5.8428261,9.2569897 c 0.04086,0.00997 0.086312,0.00862 0.1225794,0.029915 0.044169,0.025939 0.083442,0.06334 0.1103891,0.1069014 0.042088,0.068039 0.06577,0.1460533 0.092689,0.221393 0.1041571,0.2915152 0.1120824,0.380122 0.1826662,0.6987659 0.020709,0.158345 0.046981,0.316061 0.062127,0.475035 0.050339,0.528352 0.020612,0.519869 0.051957,1.048821 0.024728,0.417291 0.076922,0.833183 0.146409,1.245207 0.022427,0.09686 0.087284,0.391201 0.1234768,0.498777 0.023221,0.06902 0.017023,0.232249 0.083251,0.201975 8.9124604,-4.0740585 3.4756254,-0.47751 3.2957204,-1.870537 -0.0034,-0.0263 0.0031,-0.05294 0.0046,-0.07942 0.01259,-0.08911 0.03814,-0.181539 0.03811,-0.27185 -2.6e-5,-0.08063 -0.0312,-0.159213 -0.04706,-0.236934 -0.08271,-0.432464 -0.106121,-0.872094 -0.06539,-1.311307 9.97e-4,-0.09417 0.0053,-0.1883636 0.003,-0.28251 C 10.04245,9.533621 10.01966,9.3745529 10.00791,9.1770264 9.9915923,8.9023673 9.9957546,8.8554834 9.999776,8.5794075 10.001135,8.4860812 10.003054,8.392764 10.004693,8.2994422 10.001295,8.1853165 9.9953331,7.9322643 9.9858255,7.8158496 9.9799848,7.744334 9.9683631,7.6734037 9.9606362,7.6020672 9.9375375,7.3888161 9.9214833,7.1749201 9.9154568,6.9604607 9.9105589,6.6931412 9.8876655,6.4251626 9.8109342,6.1677149 9.7233558,5.8902109 9.5964621,5.6233521 9.6052084,5.3244909 9.6019352,5.2159683 9.6037548,5.1139791 9.5841432,5.0071625 9.5602722,4.8771464 9.4884594,4.7674667 9.43839,4.647291 9.4188494,4.6082149 9.4046779,4.5659555 9.3797684,4.5300628 8.5583339,3.3464425 7.0390227,5.6853289 6.003559,6.3089478 c -0.010777,0.00649 -0.00897,0.023525 -0.014134,0.034996 -0.00629,0.013955 -0.012722,0.02788 -0.020199,0.041235 -0.00886,0.01583 -0.019173,0.030806 -0.02876,0.04621 C 5.8552619,6.5589565 5.7809438,6.6949406 5.7132269,6.8325095 5.6865384,6.919013 5.6723362,7.0074358 5.6460867,7.0940769 5.5932441,7.2684931 5.5173783,7.4345121 5.430351,7.594379 5.3288355,7.7712253 5.2971746,7.8367989 5.1756582,8.0046876 4.9786922,8.2768186 4.7461796,8.5230403 4.4826884,8.7314734 4.2194798,8.9325283 3.9307485,9.135237 3.8305328,9.4692092 c -0.018811,0.062687 -0.02473,0.12854 -0.037094,0.19281 -0.00201,0.067684 -0.00764,0.1353568 -0.00604,0.2030518 0.00494,0.208863 0.038286,0.428595 0.1095741,0.625566 0.040482,0.111854 0.1475857,0.314158 0.1996441,0.41667 0.1237265,0.233549 0.2602785,0.467451 0.3580757,0.713564 0.078421,0.197352 0.1142908,0.401571 0.1442069,0.610505 1.1089473,-0.607679 2.2289093,-1.195675 3.3268419,-1.823035 0.020744,-0.01185 -0.039411,-0.02817 -0.054103,-0.04701 C 7.8057857,10.276882 7.7968856,10.100736 7.7586947,10.002439 7.6363413,9.649978 7.5648501,9.3474511 7.6301857,8.9695802 c 0.015098,-0.040181 0.011855,-0.093632 0.045295,-0.1205421 0.021954,-0.017666 0.1071863,0.00361 0.082696,0.017546 -1.0885206,0.6195136 -2.1849124,1.2256839 -3.2929726,1.8095299 -0.025538,0.01346 -0.0041,-0.06725 0.019058,-0.08448 0.049673,-0.03694 0.1786525,0.05188 0.200832,0.06365 0.1162205,0.08226 0.173216,0.117359 0.2812984,0.217932 0.2447359,0.227732 0.4417451,0.502718 0.6035699,0.793856 0.2326549,0.434951 0.4382337,0.88405 0.6187456,1.343188 0.1204546,0.31909 0.2132055,0.647021 0.339918,0.96375 0.067602,0.150484 0.1173555,0.30791 0.1853444,0.458369 0.6739844,1.232667 0.095956,0.274056 3.4239426,-1.669576 0.03067,-0.01791 -0.1619071,-0.260318 -0.1767727,-0.285436 -0.020396,-0.03446 -0.035359,-0.07186 -0.053039,-0.107795 -0.031142,-0.09973 -0.062524,-0.164918 -0.050864,-0.273188 0.00401,-0.03724 0.00908,-0.08096 0.036772,-0.106177 0.019807,-0.01804 0.1034734,-0.01404 0.080365,-4.89e-4 -2.8945125,1.697497 -4.3461922,2.346262 -3.142661,1.806109 0.089827,-0.0029 0.1131384,-0.0062 0.2044272,0.0018 0.01313,0.0012 0.1927287,0.02802 0.2093248,0.01895 3.1865157,-1.743124 2.4867235,-0.853246 3.2984817,-1.908495 0.03641,-0.07004 0.04836,-0.08401 0.06931,-0.162072 0.03931,-0.146486 0.03559,-0.301565 0.04256,-0.451503 0.03387,-0.561351 0.07754,-1.107744 0.312957,-1.6294542 0.04655,-0.095971 0.08615,-0.1956384 0.139656,-0.2879132 0.03516,-0.060639 0.185767,-0.2042829 0.125244,-0.1689226 -1.8289066,1.068526 -2.6455287,3.085386 -3.2936862,1.739798 -0.013912,-0.02888 0.023734,-0.02346 0.031138,-0.02375 0.1509597,0.08712 0.2162961,0.327108 0.2543001,0.481955 0.00482,0.0554 0.013847,0.110595 0.014447,0.166201 0.00266,0.246909 -0.065071,0.48929 -0.1285305,0.725343 -0.056302,0.230342 -0.1079615,0.460252 -0.1293058,0.697113 -0.032931,0.169373 -0.042264,0.342918 -0.093935,0.50802 -0.047477,0.100944 -0.051428,0.217581 -0.1085217,0.315504 -0.048743,0.09301 -0.099003,0.184239 -0.1589912,0.270659 -0.020707,0.02983 -0.037839,0.06318 -0.06461,0.08772 -0.018858,0.01728 -0.090797,0.04711 -0.068608,0.03438 1.0910816,-0.625815 2.1835919,-1.249136 3.2753883,-1.873704 0.01928,0.07806 -0.01956,0.06448 -0.07929,0.05016 -0.0086,0.0029 -0.03106,0.01129 -0.04053,0.01057 -0.05419,-0.0041 -0.107403,-0.04415 -0.154882,-0.06609 -0.08231,-0.04945 -0.142705,-0.12701 -0.224712,-0.176508 -0.03975,-0.01807 -0.08053,-0.02319 -0.120254,-0.04085 -0.0431,-0.01916 -0.08211,-0.04753 -0.124359,-0.06839 -0.054061,-0.02875 -0.1056877,-0.06404 -0.1581748,-0.09436 -0.2002952,-1.283664 -0.00293,-0.0531 -3.2523216,2.040262 -0.011404,0.0073 0.028546,0.0025 0.039202,0.01093 0.025233,0.01988 0.03639,0.08579 0.064989,0.07116 1.1275571,-0.576753 2.2481145,-1.169627 3.3393314,-1.812489 0.03884,-0.02288 -0.0323,-0.08417 -0.04845,-0.126249 -0.085264,-0.165898 -0.082045,-0.352093 -0.028941,-0.528697 0.011271,-0.118874 0.00157,-0.235483 -0.014581,-0.353805 C 9.9059742,11.119689 9.8259214,10.997878 9.7735888,10.863437 9.7631345,10.841535 9.6656621,10.637805 9.66026,10.624351 9.639079,10.571598 9.6227422,10.517026 9.6044787,10.463194 9.5389317,10.269995 9.4763365,10.075854 9.4662152,9.8700184 9.4601063,9.6857188 9.4552198,9.4992805 9.4306201,9.3161799 9.4031445,9.1116736 9.3962978,9.2070371 9.3893393,8.9908187 9.3874431,8.9319003 9.3910529,8.8729333 9.3919097,8.8139906 9.382036,8.5151874 9.3936209,8.2154631 9.3547331,7.9184978 9.3413497,7.7984867 9.3275638,7.6936013 9.3230794,7.5722314 9.3137144,7.3187709 9.3333148,7.0646266 9.319342,6.811174 9.3103656,6.6545053 9.3079796,6.494891 9.2823546,6.3397219 9.2585656,6.1956706 9.2102068,6.0575046 9.1676773,5.9183952 9.09515,5.6547267 9.0113609,5.37455 9.1029014,5.1045855 c 0,0 -3.351238,1.7902288 -3.351238,1.7902288 z" />
  <path
     style="fill:#dfdfdf;fill-opacity:1"
     id="path393"
     d="m 5.127807,7.403826 c 0.3786012,0.1763532 0.6183308,0.5276147 0.854739,0.8554174 0.062518,0.095823 0.1262584,0.1908597 0.1875532,0.2874697 0.066109,0.1041981 0.1251547,0.2129251 0.19463,0.3149097 0.2271917,0.3335004 0.3194663,0.4068936 0.5623488,0.7469706 0.2551896,0.3573089 0.3459847,0.5265876 0.5712099,0.9032686 0.2151262,0.392052 0.4034858,0.798865 0.5614436,1.217265 0.051859,0.137365 0.1311735,0.391692 0.1898491,0.535574 0.026351,0.06462 0.058685,0.126628 0.088027,0.189942 0.0342,0.05138 0.063073,0.10673 0.1025991,0.15413 0.081978,0.09831 0.2006986,0.182466 0.2971215,0.263812 0.1597079,0.134737 0.3180953,0.268771 0.4820585,0.398489 0.1871969,0.163501 0.3908634,0.329923 0.5004223,0.559881 0.025597,0.05373 0.034292,0.116153 0.045119,0.17403 -0.011048,0.01184 -0.018072,0.0296 -0.033145,0.03552 -0.045901,0.01803 -0.1850225,-0.01159 -0.1431017,-0.03756 0.9980637,-0.618446 2.0269747,-1.18576 3.0337967,-1.789844 0.05737,-0.03442 -0.119056,0.06419 -0.184054,0.08003 -0.0801,0.01952 -0.164059,0.01652 -0.246089,0.02479 -0.543964,-0.01237 -1.075352,-0.160237 -1.572559,-0.375509 -0.09188,-0.03978 -0.181288,-0.08506 -0.271932,-0.127592 C 9.8872554,11.597607 9.4306557,11.36699 9.0053906,11.085411 8.9168271,11.026771 8.8311753,10.963848 8.7440677,10.903066 8.4075281,10.645066 8.0660547,10.388865 7.8249152,10.034109 7.7244132,9.886254 7.7058612,9.8302067 7.6364607,9.6771508 7.6303154,9.6372251 7.6156955,9.5977023 7.6180248,9.5573736 7.61969,9.5285417 7.6380563,9.5031984 7.648072,9.4761108 6.5730913,10.130166 5.4699886,10.740093 4.4231299,11.438275 c -0.054009,0.03602 0.124447,0.03859 0.1830187,0.06659 0.2436142,0.116442 0.2856968,0.170778 0.5072769,0.344267 0.3173564,0.316142 0.5769418,0.682729 0.8638226,1.025332 0.131527,0.157075 0.2118298,0.241809 0.3475532,0.390126 0.1653949,0.15264 0.3445153,0.287302 0.560222,0.36017 0.2945288,0.09949 0.6163818,0.110749 0.9226596,0.142041 0.1231078,0.01264 0.2463051,0.02443 0.3693234,0.03791 0.2908225,0.03187 0.3858754,0.04062 0.6638767,0.09347 0.5498831,0.104536 -0.019469,0.0038 0.4337868,0.100811 0.052637,0.01127 0.1061799,0.0178 0.1592699,0.0267 1.3094933,-0.02494 3.1129863,-0.73834 3.3071563,-2.070484 0.04009,-0.275053 0.0038,-0.538789 -0.0308,-0.812037 C 12.639232,10.74756 12.495403,10.369075 12.345125,9.9978614 12.280468,9.8381454 12.205847,9.6825521 12.142367,9.5223645 11.951661,9.0411296 11.93914,8.9647681 11.787318,8.4692551 11.592806,7.7184524 11.484779,6.9499125 11.333308,6.1901643 11.298638,6.0362654 11.249934,5.8857751 11.194693,5.7381287 11.190418,5.7267012 11.140324,5.598995 11.127171,5.5804045 11.088926,5.52635 11.043462,5.4777835 11.001608,5.426473 9.9409488,6.0943389 8.8435568,6.7071474 7.8196307,7.4300705 c -0.056598,0.03996 0.049506,0.1299888 0.064103,0.1977166 0.021814,0.1012134 0.038298,0.2040352 0.044754,0.3073712 0.028275,0.452607 -0.03966,0.9122521 -0.084361,1.3612438 -0.013545,0.1653341 -0.02849,0.3305595 -0.040636,0.4960023 -0.041592,0.5665636 -0.020098,0.3977706 -0.064467,0.9537086 -0.031325,0.392498 -0.076186,0.782183 -0.1289972,1.172249 -0.060742,0.399717 -0.1089667,0.815667 -0.3368666,1.160187 -0.018459,0.01478 -0.031842,0.0466 -0.055376,0.04433 -0.034596,-0.0033 -0.1164155,-0.04021 -0.086603,-0.05807 1.0391287,-0.622816 2.1164865,-1.179732 3.1648321,-1.786905 0.04525,-0.02621 -0.09903,0.03928 -0.151275,0.04154 C 9.9343174,11.32854 9.8038241,11.265479 9.6031306,11.202468 9.053064,10.975973 8.5685409,10.622547 8.1674584,10.183771 7.8786887,9.8678627 7.8182225,9.7419725 7.5900804,9.3876807 7.5221252,9.2566148 7.4462915,9.1293422 7.3862147,8.9944832 7.233573,8.6518367 7.1381662,8.2656124 7.1380169,7.8888947 c -1.79e-5,-0.045001 0.00587,-0.089811 0.0088,-0.1347169 0.8225518,-1.0287189 -0.069085,0.1002443 -3.0207798,1.9630017 -0.036039,0.022744 0.00865,-0.1002767 0.046983,-0.1189009 0.048881,-0.023751 0.1095492,0.00351 0.162117,0.017303 0.1508814,0.039575 0.3102385,0.1367508 0.4435233,0.2077106 0.205042,0.1380844 0.4244559,0.2766368 0.6078815,0.4431768 0.2062183,0.187233 0.3784378,0.399295 0.5279233,0.63351 0.1408298,0.220653 0.174068,0.32321 0.2710637,0.552991 0.029978,0.07982 0.087474,0.261482 0.1506099,0.336188 0.034096,0.04034 0.07767,0.123366 0.124216,0.0984 C 7.5510135,11.30243 8.6230193,10.67944 9.6610699,10.00538 9.713244,9.9715005 9.6515862,9.8813105 9.645267,9.8194234 9.6380781,9.7490179 9.6287895,9.6788427 9.6205507,9.6085524 9.6112271,9.4818798 9.5855773,9.1707647 9.5895319,9.0541585 c 0.00375,-0.1104946 0.022514,-0.219967 0.033772,-0.3299505 0,0 -2.7804124,1.372271 -2.7804124,1.372271 v 0 c -0.017274,0.112314 -0.027345,0.225975 -0.051822,0.336942 -0.051453,0.233264 -0.1233081,0.41587 -0.2022702,0.637963 -0.03977,0.07282 -0.068997,0.152486 -0.1193096,0.218465 -0.035635,0.04673 -0.1858701,0.142433 -0.1343446,0.11417 C 7.3570775,10.843454 8.353868,10.237181 9.3837165,9.6912961 9.4251725,9.6693221 9.3625745,9.7911401 9.3249815,9.8192156 9.2205952,9.897176 9.0545251,9.810102 8.9652498,9.7824784 8.7420697,9.6311928 8.6472691,9.5792972 8.4438069,9.3839287 8.2389666,9.1872369 8.0710784,8.9814136 7.9192158,8.7411122 7.8477114,8.6279665 7.7923523,8.505371 7.7266474,8.3887619 7.6724084,8.2925019 7.615163,8.1979672 7.5594208,8.1025698 7.4450292,7.9214812 7.3272622,7.7430162 7.2095865,7.5640965 7.1680627,7.5009618 7.1489029,7.3383043 7.0833101,7.3758249 3.723129,9.2979245 3.0033461,8.6054035 4.0145496,9.5116585 4.4605229,9.8926303 4.8636507,10.32049 5.2196527,10.787039 c 0.2358277,0.299357 0.3918597,0.49338 0.6205357,0.800266 0.3422512,0.459305 0.6567496,0.941988 1.0489187,1.361886 0.2981706,0.345886 0.066116,0.07068 0.3087518,0.371938 0.03386,0.04204 0.054574,0.148432 0.1031309,0.124853 0.3642323,-0.17687 3.6499412,-0.634318 3.2865362,-1.967679 -0.04785,-0.162121 -0.09027,-0.325921 -0.116405,-0.493186 -0.01189,-0.07608 -0.01858,-0.152888 -0.02937,-0.229131 -0.01232,-0.08705 -0.02662,-0.173817 -0.03993,-0.260725 -0.03453,-0.215111 -0.07055,-0.424815 -0.09492,-0.6416804 -0.06611,-0.5882379 -0.06875,-1.1820934 -0.0075,-1.7709955 0.02348,-0.1635378 0.03938,-0.3283457 0.07045,-0.4906134 0.06442,-0.3364783 0.152837,-0.6552971 0.289872,-0.9700299 C 10.72076,6.4816261 10.791679,6.3451361 10.872066,6.21491 11.527881,5.1524972 13.957062,4.2801287 8.0012341,7.7185989 7.9855382,7.6608735 7.9506693,7.6051428 7.9541465,7.5454226 c 0.00112,-0.019212 0.038196,0.00598 0.056471,0.012011 0.025366,0.00837 0.050279,0.018521 0.073893,0.031005 0.1248294,0.065993 0.2236754,0.1680845 0.3248286,0.2642945 0.049498,0.053904 0.1013932,0.1057007 0.1484952,0.1617103 0.4226948,0.5026317 0.7229298,1.0916896 0.9478917,1.7059084 0.055948,0.17502 0.1204092,0.3475432 0.1678425,0.5250592 0.1101085,0.412076 0.1423962,0.667751 0.1878806,1.088436 0.044554,0.412076 0.066926,0.826052 0.023813,1.23949 -0.049335,0.278423 -0.084884,0.544449 -0.2668812,0.776226 -0.041773,0.0532 -0.2081839,0.170424 -0.1489018,0.137855 2.6979639,-1.482221 3.7384149,-2.331402 2.7240299,-1.515805 -0.07103,0.0233 -0.140106,0.05377 -0.2131,0.06991 -0.182214,0.0403 -0.413543,0.04968 -0.596983,0.04849 -0.33686,-0.0022 -0.671755,-0.04137 -0.998457,-0.124546 -0.08976,-0.02643 -0.180322,-0.05029 -0.269287,-0.07929 C 9.9761747,11.840702 9.8395885,11.786696 9.7011513,11.738054 9.6670301,11.726065 9.356443,11.616751 9.3261146,11.603592 9.2582801,11.574161 9.1939152,11.537303 9.1278155,11.504159 9.0555826,11.462349 8.9813425,11.42383 8.9111167,11.37873 8.4622744,11.090478 8.0838404,10.705956 7.8248245,10.238226 7.743187,10.027313 7.678904,9.9245028 7.6754999,9.7010429 7.6746934,9.6480989 7.7526345,9.5199636 7.7060639,9.5451607 6.599732,10.143742 5.5334477,10.813553 4.4471397,11.447749 c 0.032933,-0.0052 0.065784,-0.02024 0.098799,-0.01559 0.050655,0.0071 0.096743,0.03328 0.1451148,0.04993 0.2298534,0.119833 0.4526206,0.24905 0.6566186,0.410701 0.2389072,0.189313 0.2769815,0.254031 0.5010493,0.461311 0.082369,0.0762 0.1683026,0.148448 0.252454,0.222672 0.086455,0.06786 0.1709988,0.138232 0.2593643,0.203586 0.4234016,0.313146 0.8820984,0.578472 1.3668755,0.783969 0.3126502,0.116871 0.6302235,0.22475 0.93895,0.351736 0.2597728,0.10685 0.5135955,0.229426 0.7671836,0.349918 0.059987,0.02754 0.1208051,0.05333 0.1799623,0.08261 0.048876,0.02419 0.095672,0.103036 0.1439706,0.07771 1.1022203,-0.577921 2.1808813,-1.201606 3.2414713,-1.852782 0.04252,-0.02611 0.02079,-0.09875 0.01822,-0.148588 -0.0054,-0.104824 -0.04871,-0.157671 -0.098,-0.244949 -0.02861,-0.03176 -0.05369,-0.0671 -0.08584,-0.09527 -0.04849,-0.04249 -0.218701,-0.148189 -0.265285,-0.181118 -0.161478,-0.114148 -0.171703,-0.127876 -0.319211,-0.266717 -0.05337,-0.05023 -0.105673,-0.101573 -0.15851,-0.152359 -0.112952,-0.108577 -0.183355,-0.177802 -0.29869,-0.28267 -0.04758,-0.04326 -0.09815,-0.08325 -0.144317,-0.12801 -0.04515,-0.04378 -0.198399,-0.21599 -0.247673,-0.260623 -0.04334,-0.03926 -0.09186,-0.07238 -0.137793,-0.108576 C 11.05291,10.548884 10.840155,10.392267 10.649728,10.213815 10.322823,9.9074677 10.037395,9.5591583 9.7929765,9.1840759 9.5553597,8.7761994 9.482595,8.6824514 9.3005872,8.2454219 9.1633493,7.9158922 9.1124001,7.692191 8.9887972,7.364084 8.9448477,7.2474188 8.8921278,7.1342424 8.8451217,7.0187748 8.8011231,6.9106949 8.7589016,6.8019001 8.7157915,6.6934627 8.5793056,6.3282707 8.3868019,5.9088371 8.4497676,5.5091492 c 0,0 -3.3219606,1.8946768 -3.3219606,1.8946768 z" />
</svg>
