<?xml version="1.0" encoding="UTF-8" standalone="no"?>
<svg
   xmlns:dc="http://purl.org/dc/elements/1.1/"
   xmlns:cc="http://creativecommons.org/ns#"
   xmlns:rdf="http://www.w3.org/1999/02/22-rdf-syntax-ns#"
   xmlns:svg="http://www.w3.org/2000/svg"
   xmlns="http://www.w3.org/2000/svg"
   xmlns:sodipodi="http://sodipodi.sourceforge.net/DTD/sodipodi-0.dtd"
   xmlns:inkscape="http://www.inkscape.org/namespaces/inkscape"
   width="64"
   height="64"
   version="1.1"
   viewBox="0 0 16.933 16.933"
   id="svg17"
   sodipodi:docname="music.svg"
   inkscape:version="1.0.2 (e86c870879, 2021-01-15)">
  <metadata
     id="metadata21">
    <rdf:RDF>
      <cc:Work
         rdf:about="">
        <dc:format>image/svg+xml</dc:format>
        <dc:type
           rdf:resource="http://purl.org/dc/dcmitype/StillImage" />
        <dc:title></dc:title>
      </cc:Work>
    </rdf:RDF>
  </metadata>
  <sodipodi:namedview
     pagecolor="#ffffff"
     bordercolor="#666666"
     borderopacity="1"
     objecttolerance="10"
     gridtolerance="10"
     guidetolerance="10"
     inkscape:pageopacity="0"
     inkscape:pageshadow="2"
     inkscape:window-width="707"
     inkscape:window-height="665"
     id="namedview19"
     showgrid="false"
     inkscape:zoom="3.231699"
     inkscape:cx="-17.481639"
     inkscape:cy="16.017577"
     inkscape:window-x="8"
     inkscape:window-y="40"
     inkscape:window-maximized="0"
     inkscape:current-layer="svg17"
     inkscape:document-rotation="0" />
  <defs
     id="defs7">
    <linearGradient
       id="a"
       x1="47"
       x2="59.998"
       y1="41"
       y2="53.978"
       gradientTransform="matrix(0.21130793,0,0,0.21811748,-21.847364,-3.4041396)"
       gradientUnits="userSpaceOnUse">
      <stop
         offset="0"
         id="stop2" />
      <stop
         stop-color="#242424"
         stop-opacity="0"
         offset="1"
         id="stop4" />
    </linearGradient>
  </defs>
  <path
     style="color:#dfdfdf;fill:currentColor;stroke-width:0.754433"
     class="ColorScheme-Text"
     d="M 8.4755597,3.3522416 A 5.286817,5.2752524 0 0 0 3.1887424,8.6274941 5.286817,5.2752524 0 0 0 8.4755597,13.902746 5.286817,5.2752524 0 0 0 13.762377,8.6274941 5.286817,5.2752524 0 0 0 8.4755597,3.3522416 Z M 7.3544523,5.6145715 c 0.1024137,-0.00189 0.2062605,-9.862e-4 0.3068619,0 2.4146408,0.032933 4.2937268,1.0331958 4.2937268,1.0331958 0.244703,0.1296962 0.361769,0.517653 0.25981,0.828742 -0.101961,0.3110139 -0.416149,0.4840421 -0.660852,0.354723 0,0 -3.0625787,-1.6132473 -6.1805923,-0.6211985 C 5.1108021,7.3196084 4.7798477,7.1079201 4.7125541,6.7669879 4.6452602,6.4262067 4.8416268,6.0304121 5.113748,5.9692944 5.8824512,5.7246733 6.637711,5.6294928 7.3544523,5.6145715 Z m 0.328991,2.2608223 c 0.085192,-7.536e-4 0.1602647,-0.00316 0.2433445,0 1.99313,0.069331 3.3734432,1.1686191 3.3734432,1.1686191 0.17673,0.1394176 0.247726,0.4985872 0.15634,0.7683782 -0.09139,0.2697919 -0.33307,0.4059679 -0.510557,0.2663999 0,0 -2.1955394,-1.7669088 -5.0165094,-0.7344662 C 5.7312475,9.4377732 5.511543,9.2521597 5.4633573,8.9439341 5.415172,8.6357088 5.5700759,8.2968114 5.7745999,8.2433051 6.4523699,7.9953682 7.0873922,7.8806692 7.6834433,7.8753938 Z m 0.2374526,2.2593142 c 0.97504,0.01883 1.8443439,0.379819 2.6761871,0.869664 0.123863,0.08139 0.18353,0.310486 0.1148,0.474019 -0.06873,0.164286 -0.254523,0.214779 -0.367057,0.106257 0,0 -1.5377082,-1.250235 -3.8193474,-0.553902 -0.1309627,0.05652 -0.2809567,-0.05199 -0.3112429,-0.23663 -0.030287,-0.184635 0.078019,-0.395645 0.2138909,-0.422775 0.5363854,-0.163532 1.0356875,-0.239647 1.4927693,-0.236633 z"
     id="path5" />
</svg>
