<?xml version="1.0" encoding="UTF-8" standalone="no"?>
<svg
   xmlns:dc="http://purl.org/dc/elements/1.1/"
   xmlns:cc="http://creativecommons.org/ns#"
   xmlns:rdf="http://www.w3.org/1999/02/22-rdf-syntax-ns#"
   xmlns:svg="http://www.w3.org/2000/svg"
   xmlns="http://www.w3.org/2000/svg"
   xmlns:sodipodi="http://sodipodi.sourceforge.net/DTD/sodipodi-0.dtd"
   xmlns:inkscape="http://www.inkscape.org/namespaces/inkscape"
   width="64"
   height="64"
   version="1.1"
   viewBox="0 0 16.933 16.933"
   id="svg17"
   sodipodi:docname="terminal.svg"
   inkscape:version="1.0.2 (e86c870879, 2021-01-15)">
  <metadata
     id="metadata21">
    <rdf:RDF>
      <cc:Work
         rdf:about="">
        <dc:format>image/svg+xml</dc:format>
        <dc:type
           rdf:resource="http://purl.org/dc/dcmitype/StillImage" />
        <dc:title></dc:title>
      </cc:Work>
    </rdf:RDF>
  </metadata>
  <sodipodi:namedview
     pagecolor="#ffffff"
     bordercolor="#666666"
     borderopacity="1"
     objecttolerance="10"
     gridtolerance="10"
     guidetolerance="10"
     inkscape:pageopacity="0"
     inkscape:pageshadow="2"
     inkscape:window-width="1350"
     inkscape:window-height="671"
     id="namedview19"
     showgrid="false"
     inkscape:zoom="4.5703125"
     inkscape:cx="4.6388277"
     inkscape:cy="14.722969"
     inkscape:window-x="8"
     inkscape:window-y="40"
     inkscape:window-maximized="0"
     inkscape:current-layer="svg17"
     inkscape:document-rotation="0" />
  <defs
     id="defs7">
    <linearGradient
       id="a"
       x1="47"
       x2="59.998"
       y1="41"
       y2="53.978"
       gradientTransform="matrix(0.21130793,0,0,0.21811748,1.750375,1.9091955)"
       gradientUnits="userSpaceOnUse">
      <stop
         offset="0"
         id="stop2" />
      <stop
         stop-color="#242424"
         stop-opacity="0"
         offset="1"
         id="stop4" />
    </linearGradient>
  </defs>
  <rect
     x="2.5985456"
     y="3.6494858"
     width="11.832859"
     height="10.033668"
     rx="1.0957536"
     ry="1.0906699"
     fill="#72787e"
     id="rect9"
     style="fill:#dfdfdf;fill-opacity:1;stroke-width:0.811421" />
  <rect
     x="6.1385427"
     y="10.357454"
     width="5.0487733"
     height="0.60546029"
     ry="0.30330238"
     fill="#fff"
     paint-order="stroke markers fill"
     id="rect11"
     style="fill:#303030;fill-opacity:1;stroke-width:1.16838" />
  <path
     d="M 4.6464054,5.1424665 A 0.26679674,0.282728 0 0 0 4.3816298,5.2816887 0.26679674,0.282728 0 0 0 4.4796574,5.6693688 L 7.3517646,7.4257093 4.4796574,9.1831209 a 0.26679674,0.282728 0 0 0 -0.098028,0.3876797 c 0.074784,0.1360101 0.2374895,0.1820605 0.365835,0.1038815 L 7.9884387,7.6913023 A 0.26275436,0.27844425 0 0 0 8.1167841,7.450341 c 0.00202,-0.00857 0.00101,-0.016064 0.00202,-0.023562 0,-0.00857 0,-0.016063 -0.00202,-0.024631 A 0.26275436,0.27844425 0 0 0 7.9884387,7.1622583 L 4.7474648,5.1778075 A 0.2688179,0.28486989 0 0 0 4.6464054,5.1424665 Z"
     fill="#fff"
     paint-order="stroke markers fill"
     id="path13"
     style="fill:#303030;fill-opacity:1;stroke-width:1.04033" />
  <path
     d="m 14.429808,9.2833765 -4.262417,4.3997765 h 3.807185 c 0.252374,0 0.455232,-0.196205 0.455232,-0.44105 z"
     fill="url(#a)"
     opacity="0.15"
     id="path15"
     style="fill:url(#a);stroke-width:0.811421" />
</svg>
