<?xml version="1.0" encoding="UTF-8" standalone="no"?>
<svg
   xmlns:dc="http://purl.org/dc/elements/1.1/"
   xmlns:cc="http://creativecommons.org/ns#"
   xmlns:rdf="http://www.w3.org/1999/02/22-rdf-syntax-ns#"
   xmlns:svg="http://www.w3.org/2000/svg"
   xmlns="http://www.w3.org/2000/svg"
   xmlns:sodipodi="http://sodipodi.sourceforge.net/DTD/sodipodi-0.dtd"
   xmlns:inkscape="http://www.inkscape.org/namespaces/inkscape"
   width="64"
   height="64"
   version="1.1"
   viewBox="0 0 16.933 16.933"
   id="svg17"
   sodipodi:docname="web.svg"
   inkscape:version="1.0.2 (e86c870879, 2021-01-15)">
  <metadata
     id="metadata21">
    <rdf:RDF>
      <cc:Work
         rdf:about="">
        <dc:format>image/svg+xml</dc:format>
        <dc:type
           rdf:resource="http://purl.org/dc/dcmitype/StillImage" />
        <dc:title></dc:title>
      </cc:Work>
    </rdf:RDF>
  </metadata>
  <sodipodi:namedview
     pagecolor="#ffffff"
     bordercolor="#666666"
     borderopacity="1"
     objecttolerance="10"
     gridtolerance="10"
     guidetolerance="10"
     inkscape:pageopacity="0"
     inkscape:pageshadow="2"
     inkscape:window-width="708"
     inkscape:window-height="665"
     id="namedview19"
     showgrid="false"
     inkscape:zoom="2.2851563"
     inkscape:cx="-176.51192"
     inkscape:cy="18.935284"
     inkscape:window-x="8"
     inkscape:window-y="40"
     inkscape:window-maximized="0"
     inkscape:current-layer="svg17"
     inkscape:document-rotation="0"
     showguides="true"
     inkscape:guide-bbox="true" />
  <defs
     id="defs7">
    <linearGradient
       id="a"
       x1="47"
       x2="59.998"
       y1="41"
       y2="53.978"
       gradientTransform="matrix(0.21130793,0,0,0.21811748,-21.847364,-3.4041396)"
       gradientUnits="userSpaceOnUse">
      <stop
         offset="0"
         id="stop2" />
      <stop
         stop-color="#242424"
         stop-opacity="0"
         offset="1"
         id="stop4" />
    </linearGradient>
  </defs>
  <path
     fill="#20598d"
     color="#000000"
     d="m 8.4128827,3.1702739 a 5.2371276,5.3893687 0 1 0 0,10.7787371 5.2371276,5.3893688 0 0 0 0,-10.7787371 m 0,0.8982283 c 0.151004,0 0.289788,0.012561 0.436427,0.027838 h 0.109106 c 0.04626,0.009 0.09078,0.020675 0.136165,0.027838 0.12569,0.020675 0.233051,0.052995 0.354378,0.084432 0.224326,0.056587 0.446029,0.1338355 0.6546423,0.2245587 0.115216,0.050299 0.217342,0.1086857 0.327321,0.1688679 v 0.027838 c 0.0253,0.011678 0.03928,0.060182 0.08205,0.084432 0.0157,0.009 0.01221,0.019759 0.02705,0.027838 0.0253,0.01436 0.05935,0.030554 0.05499,0.055691 -0.007,0.035929 -0.05761,0.028755 -0.08205,0.055691 0.0035,0.052099 -0.0419,0.049403 -0.05499,0.084432 0.0078,0.022441 0.0515,0.029638 0.05499,0.055691 -0.0043,0.028755 -0.06547,0.026956 -0.05499,0.055691 0.04714,0.037725 0.09165,0.009 0.136165,0 0.09776,-0.012561 0.185047,-0.009 0.245271,-0.055691 -0.0078,-0.047607 0.08728,-0.04132 0.08205,-0.084432 0.0253,0.018876 0.05674,0.036828 0.08205,0.055691 -0.0096,0.009 -0.01659,0.023358 -0.02705,0.027838 -0.01834,0.009 -0.03753,0.017077 -0.05499,0.027838 l -0.08205,0.055691 c -0.02009,0.014361 -0.0611,0.084432 -0.08205,0.084432 -0.0253,0 -0.06372,-0.033237 -0.08205,-0.027838 -0.02619,0.009 -0.0253,0.045811 -0.05499,0.055691 -0.05761,0.021558 -0.171079,-0.03232 -0.191157,0.055691 0.02444,0.051199 0.120454,0.027838 0.164098,0.055691 a 0.27058492,0.27845072 0 0 1 0.08205,0.1122777 0.51760277,0.53264927 0 0 1 0,0.1688679 c -0.02705,0.071858 -0.110851,0.056587 -0.191156,0.055691 h -0.05499 c -0.135294,-0.009 -0.26622,-0.071858 -0.327321,0.027838 0.0043,0.076348 0.01659,0.1302436 0,0.1967132 -0.01221,0.048503 -0.08467,0.098806 -0.08205,0.140123 8.72e-4,0.021558 0.04975,0.053895 0.05499,0.084432 0.0035,0.01616 -0.007,0.040421 0,0.055691 0.0227,0.044012 0.06895,-0.009 0.109106,0 0.03841,0.009 0.08205,0.068266 0.08205,0.1122776 a 0.22694219,0.2335393 0 0 1 -0.02705,0.1122795 c -0.03841,0.059283 -0.109106,0.052099 -0.164098,0.084432 -0.04539,0.026955 -0.05499,0.094315 -0.08205,0.1401229 -0.0288,0.050299 -0.06634,0.068266 -0.05499,0.140123 a 0.32033762,0.3296497 0 0 1 -0.164099,0.168868 c -0.02355,0.010762 -0.06022,0.011678 -0.08205,0.027838 -0.01745,0.012561 -0.02969,0.055691 -0.05499,0.084432 -0.03055,0.035029 -0.06546,0.057487 -0.08205,0.084432 -0.01221,0.020675 -0.01395,0.055691 -0.02705,0.084432 -0.0192,0.037725 -0.05761,0.046707 -0.08205,0.084432 -0.01135,0.017959 -0.01485,0.061078 -0.02705,0.084432 -0.02794,0.052099 -0.06023,0.094315 -0.05499,0.1401229 0.0044,0.043115 0.05237,0.044911 0.05499,0.084432 0.0026,0.021558 -0.02794,0.03232 -0.02705,0.055691 8.73e-4,0.034133 0.02445,0.057487 0.02705,0.084432 0.0061,0.06647 -0.04277,0.095211 -0.05499,0.1401229 -0.0061,0.021558 0.0052,0.038625 0,0.055691 -0.01046,0.033236 -0.05324,0.072757 -0.05499,0.1122776 -8.73e-4,0.027838 0.05237,0.044911 0.05499,0.084432 0.0018,0.02604 -0.0323,0.059283 -0.02705,0.084432 0.0096,0.048503 0.09951,0.1023984 0.136164,0.1401229 0.04975,0.051199 0.114345,0.086232 0.136165,0.140123 0.01834,0.045811 0.02095,0.1338356 0.05499,0.168868 0.0253,0.025156 0.07681,0.029638 0.109106,0.055691 0.03055,0.024239 0.04976,0.029638 0.08205,0.055691 0.05324,0.043115 0.133549,0.1464104 0.2182163,0.1401229 0.04452,-0.009 0.08641,-0.047607 0.136164,-0.055691 0.05149,-0.009 0.111726,-0.03232 0.164098,-0.027838 0.04016,0.009 0.09427,0.030554 0.136164,0.027838 0.04364,-0.009 0.08641,-0.009 0.136165,-0.027838 0.08641,-0.038624 0.228687,-0.1023983 0.354379,-0.084432 0.09601,0.014361 0.09689,0.1248524 0.164098,0.1688679 0.07681,0.009 0.130055,-0.015277 0.191157,0 0.04626,0.011678 0.104741,0.074553 0.109105,0.1122776 0.0043,0.038625 -0.04975,0.088028 -0.05499,0.1122776 -0.01221,0.052099 0.0088,0.1068898 0,0.140123 -0.007,0.026039 -0.02794,0.058382 -0.02705,0.084432 0,0.023358 0.03055,0.08174 0.05499,0.1122775 0.0288,0.037725 0.07419,0.071858 0.109106,0.1122777 0.06372,0.075453 0.09165,0.1526978 0.136165,0.2524012 0.01135,0.02515 -0.01049,0.0521 0,0.08443 -0.0192,0.1509017 -0.06808,0.2541997 -0.164098,0.4212687 -0.04539,0.0539 -0.10998,0.101498 -0.109106,0.168868 -0.0035,0.16168 0.08903,0.264978 0.08205,0.421268 -0.0157,0.210185 0.0157,0.224559 0,0.336837 0.06895,0.03593 0.02006,0.150005 0,0.224558 -0.0297,0.08892 -0.06547,0.108687 -0.08205,0.168869 0.04626,0.02067 0.1126,0.01256 0.164098,0 l -0.08205,0.08443 a 4.5597922,4.6923435 0 0 1 -0.654674,0.561445 4.3119015,4.4372468 0 0 1 -1.5004373,0.673671 4.3345956,4.4606006 0 0 1 -0.927844,0.08443 c -0.165843,0 -0.32994,-0.009 -0.491418,-0.02784 -0.128309,-0.01527 -0.257493,-0.02963 -0.38231,-0.05569 -0.247019,-0.05209 -0.479197,-0.159884 -0.709631,-0.2524 -0.0079,-0.01527 -0.0288,-0.03772 -0.02705,-0.05569 0.04539,-0.01976 0.13093,0.06647 0.164098,0 0.01659,-0.03144 -0.02181,-0.108685 0,-0.140123 0.0157,-0.02156 0.103871,-0.02156 0.136165,-0.02784 0.04626,-0.009 0.10998,-0.01527 0.136165,-0.02784 0.0288,-0.01888 0.06023,-0.08534 0.05499,-0.140123 -0.0026,-0.02604 -0.03491,-0.03232 -0.05499,-0.05569 -0.01659,-0.01976 0.01135,-0.03772 0,-0.05569 -0.02095,-0.03144 -0.07332,-0.03862 -0.08205,-0.08443 0.06285,-0.01256 0.154494,0.0539 0.24527,0.02784 0.04277,-0.01256 0.11609,-0.0988 0.136165,-0.140123 0.0061,-0.01256 -0.007,-0.03951 0,-0.05569 0.0079,-0.01616 0.02445,-0.0476 0.02705,-0.05569 0.0061,-0.02424 -0.0052,-0.01168 0,-0.02784 0.0157,-0.04581 0.05586,-0.07994 0.08205,-0.112279 0.02009,-0.02515 0.06372,-0.05839 0.08205,-0.08443 0.02095,-0.02784 0.0131,-0.03056 0.02705,-0.05569 0.0131,-0.08174 -0.04626,-0.152698 -0.02705,-0.224559 0.02095,-0.08083 0.142275,-0.13204 0.218215,-0.168868 0.0262,-0.01256 0.06023,-0.01976 0.08205,-0.02784 0.05237,-0.01887 0.115216,-0.03862 0.164098,-0.05569 0.08205,-0.03056 0.09601,-0.09162 0.136165,-0.168868 0.0192,-0.03593 0.05063,-0.08623 0.05499,-0.112278 0.0035,-0.02336 -0.0044,-0.02875 0,-0.05569 0.0044,-0.02604 -0.007,-0.0539 0,-0.08443 a 0.90776873,0.93415719 0 0 0 0.02705,-0.168868 c 0,-0.03593 -0.0262,-0.0521 -0.02705,-0.08443 -0.0061,-0.11677 0.04015,-0.105094 0.08205,-0.168868 0.02095,-0.03144 0.04015,-0.08982 0.05499,-0.112278 0.0707,-0.107777 0.199881,-0.145506 0.191155,-0.308983 -0.0035,-0.05389 -0.04364,-0.1796439 -0.08205,-0.1967103 -0.02181,-0.00988 -0.04975,-0.01616 -0.08205,-0.027838 -0.102994,-0.039531 -0.1929,-0.1598958 -0.30026,-0.1688788 h -0.05499 c -0.0419,0 -0.08903,-0.021558 -0.136165,-0.027838 -0.02969,-0.009 -0.09165,0.009 -0.109106,0 -0.02705,-0.013478 -0.03317,-0.069165 -0.05499,-0.084432 -0.01745,-0.012561 -0.05499,-0.017959 -0.08205,-0.027838 -0.04277,-0.01616 -0.05935,-0.052995 -0.109106,-0.055691 -0.0157,0 -0.03753,0.009 -0.05499,0 -0.02705,-0.009 -0.05674,-0.011678 -0.08205,-0.027838 -0.03141,-0.019759 -0.06896,-0.027838 -0.08205,-0.055691 0.0288,-0.097007 -0.06285,-0.1113814 -0.08205,-0.168868 -0.0087,-0.026039 0.0087,-0.088924 0,-0.1122775 -0.01135,-0.033237 -0.04626,-0.056587 -0.08205,-0.084432 a 0.32732048,0.33683555 0 0 0 -0.191163,-0.084484 c -0.04015,-0.009 -0.08816,0.009 -0.136164,0 a 0.31248194,0.32156566 0 0 1 -0.164081,-0.084433 c -0.03666,-0.044012 -0.04975,-0.09162 -0.08205,-0.1122776 -0.03055,-0.019759 -0.0611,-0.035929 -0.08205,-0.055691 -0.0096,-0.009 -0.01834,-0.009 -0.02705,-0.027838 -0.0157,-0.033237 -0.04626,-0.044012 -0.02705,-0.084432 -0.03491,-0.017959 -0.01745,0.034133 -0.05499,0.027838 -0.03404,-0.049403 -0.05935,-0.098806 -0.136165,-0.084432 -0.03491,0.009 -0.06808,0.083536 -0.109106,0.084432 -0.03404,0 -0.06459,-0.077248 -0.109106,-0.084432 -0.03404,-0.009 -0.08554,0.03232 -0.109106,0.027838 -0.03753,-0.009 -0.04801,-0.03232 -0.08205,-0.055691 -0.0253,-0.017077 -0.06808,-0.056587 -0.08205,-0.055691 -0.04364,0 -0.07594,0.088924 -0.136165,0.055691 -0.02969,-0.038625 0.06197,-0.048504 0.02705,-0.084432 -0.02619,-0.026039 -0.03317,0.015277 -0.05499,0.027838 -0.02445,0.01616 -0.05499,0.017959 -0.08205,0.027838 -0.06023,0.023358 -0.116964,0.030554 -0.164097,0.055691 a 0.16322381,0.16796866 0 0 0 -0.08205,0.084432 c -0.02009,0.037725 -0.0515,0.1104817 -0.08205,0.1122776 -0.03666,0 -0.04888,-0.040421 -0.08205,-0.055691 -0.100377,-0.044911 -0.162349,0.026039 -0.245271,0.027838 -0.07681,0 -0.194647,-0.1221603 -0.191156,-0.1967132 0.0026,-0.045811 0.02181,-0.1113815 0.02705,-0.1688681 0.0044,-0.044911 0.05412,-0.099703 0.05499,-0.1401229 8.73e-4,-0.055691 -0.101251,-0.078144 -0.136165,-0.084432 -0.08205,-0.015277 -0.179808,0.037725 -0.273204,0 -0.01745,-0.030554 0.01659,-0.053895 0.02705,-0.084432 0.0061,-0.01616 -0.0061,-0.037725 0,-0.055691 0.01046,-0.028755 0.06896,-0.053895 0.08205,-0.084432 0.0096,-0.023357 -0.0096,-0.054791 0,-0.084432 0.01135,-0.03232 0.0515,-0.061078 0.05499,-0.084432 0.0035,-0.030554 -0.03141,-0.064673 -0.05499,-0.084432 -0.07245,0.009 -0.1222,0.009 -0.164097,0.027838 -0.09427,0.044015 -0.06896,0.1661745 -0.164097,0.1967155 a 0.79778906,0.82098047 0 0 1 -0.109106,0.027838 c -0.0157,0.009 -0.03666,0 -0.05499,0 0.0017,-0.009 -0.0017,-0.018876 0,-0.027838 0.0044,-0.020675 0.0227,-0.035929 0.02705,-0.055691 a 4.2944446,4.4192823 0 0 1 0.273202,-0.8425142 h 0.02705 c 0.03317,0.009 0.05324,0.053895 0.08205,0.055691 0.0803,0.009 0.09776,-0.076348 0.164098,-0.1122777 0.06808,0.00988 0.102125,-0.009 0.164098,0 0.0419,0.009 0.102996,0.052099 0.136164,0.055691 0.02794,0 0.02794,-0.031437 0.05499,-0.027838 0.02619,0.009 0.07768,0.052099 0.08205,0.084432 0.0044,0.040421 -0.03841,0.096111 -0.02705,0.1401229 0.04102,0.043116 0.132675,0.059283 0.191157,0.084432 0.0384,-0.033236 0.0061,-0.093415 0,-0.140123 -8.73e-4,-0.020675 0.0026,-0.06557 0,-0.084432 -0.0044,-0.03232 -0.02705,-0.056587 -0.02705,-0.084432 0,-0.1284477 0.107361,-0.1742557 0.191156,-0.2245586 0.03579,-0.021558 0.07769,-0.068266 0.109106,-0.084432 0.04452,-0.022441 0.07245,-0.009 0.109106,-0.027838 0.06634,-0.038624 0.112597,-0.097007 0.164098,-0.1401229 0.02355,-0.058387 -0.0026,-0.1392267 0,-0.1967133 0.02355,-0.015277 0.05674,0 0.08205,0 0.04015,-0.009 0.05935,-0.061078 0.08205,-0.084432 0.0131,-0.013478 0.03841,-0.01436 0.05499,-0.027838 0.04015,-0.03232 0.04713,-0.070062 0.08205,-0.084432 a 0.21559509,0.22186235 0 0 1 0.05499,-0.027838 c 0.02619,-0.009 0.06721,-0.011678 0.109106,-0.027838 0.02705,-0.00988 0.09863,-0.01616 0.109106,-0.027838 0.0131,-0.013478 -0.0035,-0.063774 0,-0.084432 0.02095,-0.1014987 0.157114,-0.1059901 0.245271,-0.1401229 0.0611,-0.023358 0.12307,-0.097007 0.191156,-0.084432 -0.0131,0.048503 -0.06634,0.053895 -0.05499,0.1122777 0.01485,0.08174 0.108235,-0.01616 0.136165,-0.027838 0.05324,-0.023357 0.148384,-0.057487 0.218215,-0.084432 0.0611,-0.022441 0.166714,-0.039521 0.109106,-0.1122776 -0.04801,-0.009 -0.06721,0.038625 -0.109106,0.055691 -0.0288,0.009 -0.03055,-0.025157 -0.05499,-0.027838 -0.02355,0 -0.03055,0.03232 -0.05499,0.027838 -0.02355,-0.009 -0.0515,-0.054791 -0.05499,-0.084432 -0.0096,-0.075453 0.05237,-0.084432 0.08205,-0.140123 -0.02009,-0.068269 -0.108237,-0.029642 -0.164099,-0.055694 a 0.09863257,0.10149978 0 0 1 0.08205,-0.084432 c 0.03753,-0.009 0.141403,0.009 0.164098,0.027838 0.0131,0.011678 -0.02009,0.037725 0,0.055691 0.0227,0.020675 0.05237,0.009 0.08205,0 0.01046,-0.051199 -0.06285,-0.022441 -0.05499,-0.055691 0.05935,-0.039521 0.172823,-0.017959 0.24527,-0.027838 a 0.59092254,0.60810042 0 0 0 0.136165,-0.055691 c 0.03491,-0.020675 0.04539,-0.061978 0.08205,-0.027838 0.01049,0.036829 -0.007,0.064674 -0.02705,0.084432 -0.06721,0.061078 -0.138784,0.125752 -0.191157,0.1967133 0.0323,0.03232 0.08205,0.021558 0.136165,0.027838 0.02095,0.009 0.06023,0 0.08205,0 0.02619,0.009 0.0611,-0.009 0.08205,0 0.03666,0.009 0.04539,0.084432 0.08205,0.084432 0.05935,0 0.03404,-0.071858 0,-0.1122776 0.01046,-0.042217 0.0419,-0.082636 0.02705,-0.1122775 -0.02705,-0.055691 -0.130929,0.01616 -0.136164,-0.055691 -0.0035,-0.044911 0.0384,-0.0503 0.05499,-0.084432 -0.007,-0.086232 0.06285,-0.09072 0.05499,-0.168868 -0.0044,-0.03232 -0.0323,-0.025157 -0.05499,-0.055691 -0.01135,-0.01616 -0.01395,-0.071858 -0.02705,-0.084432 -0.04539,-0.039521 -0.130929,-0.009 -0.136165,-0.084432 -0.0026,-0.044911 0.0061,-0.092519 0,-0.1401229 -0.0061,-0.045811 -0.04364,-0.1877303 -0.08205,-0.1967133 -0.04888,-0.010762 -0.07768,0.084432 -0.136165,0.1122776 a 0.32732048,0.33683555 0 0 1 -0.136166,0.027839 c -0.02095,-0.009 -0.0515,-0.013478 -0.05499,-0.055691 -0.0035,-0.037725 0.04102,-0.054791 0.05499,-0.084432 0.0035,-0.009 -0.0017,-0.017959 0,-0.027838 0.06372,-0.017959 0.126565,-0.040421 0.191157,-0.055691 0.03666,-0.009 0.07245,-0.020675 0.109106,-0.027838 0.02619,-0.009 0.05586,0.009 0.08205,0 a 4.2289804,4.3519151 0 0 1 0.79081,-0.08354 z m -1.772768,0.4212689 c -0.02794,0.1634768 -0.177188,0.2290467 -0.354379,0.2245552 -0.04015,0.039524 -0.0052,0.1140735 -0.02705,0.168868 -0.01834,0.045811 -0.09165,0.088028 -0.136164,0.084432 -0.0323,0 -0.08205,-0.052995 -0.08205,-0.084432 0,-0.038625 0.05935,-0.040421 0.02705,-0.084432 0.0018,-0.009 0.01834,-0.018876 0.02705,-0.027838 0.01745,-0.011678 0.03666,-0.017077 0.05499,-0.027838 0.157987,-0.099704 0.320336,-0.1733574 0.491416,-0.252402 m 3.6555163,0.1679683 c -0.0157,0.009 -0.01309,0.018876 -0.02705,0.027838 -0.03317,0.020675 -0.05674,0.046707 -0.08205,0.055691 -0.03579,0.013478 -0.07681,0.022441 -0.08205,0.055691 -0.0043,0.027838 0.02794,0.030554 0.02705,0.055691 -0.01309,0.033236 -0.02009,0.044012 -0.02705,0.084432 0.04452,0.074553 0.136165,-0.01616 0.191157,-0.027838 0.02444,-0.009 0.04102,-0.009 0.05499,-0.027838 0.01484,-0.02424 0.0157,-0.050299 0.02705,-0.084432 0.01221,-0.037725 0.05935,-0.051199 0.05499,-0.084432 -0.0035,-0.033236 -0.08205,-0.060182 -0.136165,-0.055691 z M 5.5228507,5.2200451 c 0.04102,0.034133 0.09951,0.1086857 0.02705,0.140123 a 0.44864724,0.46168922 0 0 1 -0.136164,0.027838 c -0.0087,0 -0.02009,-0.021558 -0.02705,-0.027838 0.04539,-0.044911 0.08903,-0.097007 0.136164,-0.140123 m 0.164098,0.168868 c 0.02095,0 0.02969,0.054791 0.05499,0.055691 0.02356,0 0.04015,-0.031437 0.05499,-0.027838 0.03666,0.00988 0.06197,0.084432 0.02705,0.1122777 -0.0288,0.009 -0.03404,-0.031437 -0.05499,-0.027838 -0.05935,0.010762 -0.09165,0.1437182 -0.136165,0.1401229 -0.0419,-0.009 -0.06983,-0.1086858 -0.02705,-0.1401229 8.73e-4,-0.026957 -0.0017,-0.027838 0,-0.055691 0.0131,-0.01616 0.04713,-0.058387 0.08205,-0.055691 z m -0.218215,0.027838 c 0.01221,0 0.0227,-0.009 0.02705,0 -0.0061,0.047607 -0.0192,0.061978 -0.05499,0.084432 -0.06197,0.038625 -0.11609,0.086232 -0.136165,0.168868 -0.0061,0.02424 -0.07943,0.089824 -0.109106,0.084432 -0.06896,-0.015277 0.03928,-0.1482062 0.05499,-0.1688679 0.01745,-0.022441 0.03491,-0.030554 0.05499,-0.055691 0.02009,-0.025157 0.03579,-0.070062 0.05499,-0.084432 a 0.21472223,0.22096412 0 0 1 0.109106,-0.027838 z m 5.9188273,0.1401232 c 0.06895,-0.009 0.104742,0.069165 0.136165,0.1122777 a 0.54989838,0.56588371 0 0 0 0.136164,0.1122775 c 0.02444,0.013478 0.05499,0.044012 0.08205,0.055691 0.05674,0.026039 0.160605,0.1104816 0.164098,0.1688679 8.73e-4,0.028755 -0.03144,0.057487 -0.02705,0.084432 0.04277,0.009 0.08118,-0.068266 0.08205,-0.1122776 0.0803,0.1167691 0.149259,0.2407254 0.218215,0.3646809 0.03229,0.058382 0.07855,0.1077861 0.109106,0.168868 -0.03841,0.011678 -0.04801,0.017959 -0.05499,0.055691 -0.0088,0.050299 0.01834,0.13114 -0.05499,0.1401229 -0.04626,0.009 -0.100376,-0.040421 -0.164097,-0.055691 -0.02619,-0.009 -0.0611,0.009 -0.08205,0 -0.04801,-0.01616 -0.04102,-0.082636 -0.08205,-0.1122776 A 0.41547879,0.42755659 0 0 0 11.714018,6.483846 c -0.02355,0 -0.03055,0.009 -0.05499,0 -0.0297,-0.009 -0.08467,0.012561 -0.109106,0 a 0.28193201,0.29012766 0 0 1 -0.08205,-0.084432 c -0.0096,-0.033236 0.0803,-0.055691 0.08205,-0.084432 0.0017,-0.021558 -0.02269,-0.051199 -0.02705,-0.084432 -0.0035,-0.019759 0.0043,-0.042217 0,-0.055691 -0.0061,-0.023358 -0.04626,-0.026955 -0.08205,-0.027838 h -0.328198 c -0.07594,0.009 -0.131801,-0.009 -0.191156,0 -0.04277,0 -0.123946,0.037725 -0.164099,0.055691 l -0.05499,0.027838 a 0.35787038,0.36827352 0 0 1 -0.05499,0.027838 c -0.02444,0.011678 -0.05848,0.048503 -0.08205,0.055691 -0.03404,0.009 -0.07419,-0.009 -0.136165,0 -0.04452,0 -0.108235,-0.029638 -0.109106,-0.084432 -8.73e-4,-0.083536 0.141404,-0.040421 0.218216,-0.055691 0.0288,-0.009 0.04714,-0.034133 0.08205,-0.055691 0.01659,-0.00988 0.01135,-0.017077 0.02705,-0.027838 0.02619,-0.018876 0.07768,-0.062877 0.08205,-0.084432 0.0035,-0.019759 -0.0026,-0.040421 0,-0.055691 0.0035,-0.018876 0.03141,-0.030554 0.05499,-0.055691 0.03666,-0.037725 0.06372,-0.088028 0.109106,-0.1122777 0.03055,-0.01616 0.06808,-0.030554 0.08205,-0.055691 0.0035,-0.028755 -8.73e-4,-0.028755 0,-0.055691 a 0.11434394,0.11766787 0 0 1 0.05499,-0.027838 c 0.04714,-0.010762 0.08118,0 0.136165,0 0.02355,0 0.05674,0.011678 0.08205,0 0.02095,-0.01436 0.03404,-0.045811 0.05499,-0.055691 a 0.21646792,0.22276055 0 0 1 0.08205,-0.027838 z m 0.491418,0.5335475 h -0.109107 c -0.03841,0 -0.08641,-0.020675 -0.109106,0 0.0323,0.053895 0.09165,0.070961 0.164098,0.084432 a 0.16758807,0.17245979 0 0 0 0.05499,-0.084432 M 5.9060457,5.5847111 h 0.08205 c 0.02181,0 0.04626,-0.009 0.05499,0 -0.01395,0.059283 -0.145768,0.049403 -0.191156,0.027838 0.0026,-0.022441 0.02619,-0.02424 0.05499,-0.027838 m -0.191157,0.1122775 c -0.03841,0.028755 -0.07594,0.064673 -0.136165,0.084432 -0.03317,0.010795 -0.07594,0.00988 -0.08205,-0.027838 -0.007,-0.046707 0.05237,-0.023358 0.08205,-0.027838 0.0384,-0.009 0.09165,-0.026039 0.136165,-0.027838 z m 5.6735553,0 c -0.0288,0.00988 -0.04277,0.075453 0,0.084432 0.02006,-0.012561 0.03229,-0.045808 0.02705,-0.084432 -0.01135,-0.012561 -0.01834,-0.009 -0.02705,0 m -0.05499,0.140123 c 8.72e-4,0.050299 0.0096,0.097007 0,0.140123 0.02794,0.055691 0.09514,0.00988 0.109106,-0.027838 0.01659,-0.093415 -0.01221,-0.1239563 -0.05499,-0.1122776 -0.01395,0.009 -0.04016,-0.011678 -0.05499,0 M 4.1053487,7.941662 c 0.04888,0.045811 0.07768,0.1104817 0.136165,0.1401229 a 0.41111448,0.42306542 0 0 0 0.08205,0.027838 c 0.0227,0.009 0.03317,-0.009 0.05499,0 0.04626,0.01616 0.09951,0.038625 0.136164,0.055691 0.05586,0.025156 0.115216,0.1113813 0.164098,0.1401229 0.0026,0.028755 -0.0087,0.062874 0,0.084432 0.0227,0.031437 0.04539,0.062874 0.08205,0.084432 0.04452,0.025157 0.06721,0.064673 0.109106,0.084432 0.01484,0.009 0.03141,-0.009 0.05499,0 0.05761,0.017959 0.08641,0.099703 0.136165,0.084432 0.0323,-0.00988 0.02181,-0.052099 0.02705,-0.084432 0.02181,-0.024239 0.04801,-0.055691 0.08205,-0.055691 0.05412,0 0.06197,0.086232 0.08205,0.140123 0.01135,0.030554 0.04713,0.052099 0.05499,0.084432 a 0.82135614,0.84523262 0 0 1 0,0.2524006 c -0.01395,0.04132 -0.07594,0.038625 -0.109106,0.084432 -0.0157,0.021558 -0.01485,0.069165 -0.02705,0.084432 -0.02095,0.026039 -0.0384,0.031437 -0.05499,0.055691 -0.0087,0.013478 -0.0192,0.037725 -0.02705,0.055691 -0.02619,0.057487 -0.07681,0.099703 -0.05499,0.1688679 0.0087,0.027838 0.05499,0.051199 0.05499,0.084432 0,0.039521 -0.07594,0.069162 -0.08205,0.1122777 -0.0044,0.031437 0.01745,0.070062 0.02705,0.1122775 0.007,0.031437 0.06372,0.063774 0.08205,0.084432 0.03055,0.03503 0.05412,0.09611 0.08205,0.140122 0.05499,0.087129 0.08205,0.1949145 0.136164,0.2811455 0.0288,0.04401 0.08991,0.06557 0.109106,0.112278 0.0096,0.02336 -0.0087,0.06288 0,0.08443 0.03141,0.07276 0.174573,0.160781 0.245271,0.196713 0.03317,0.01708 0.07856,0.0099 0.109106,0.02784 0.04626,0.02696 0.140529,0.0988 0.164098,0.140124 0.02095,0.03772 0.01659,0.136531 0.02705,0.196713 0.0131,0.07904 -0.0035,0.139226 0,0.224558 0.0026,0.04671 0.02705,0.06557 0.02705,0.112278 0,0.01617 8.73e-4,0.06737 0,0.08443 -8.73e-4,0.05569 0.0044,0.111382 0,0.168868 a 0.51498419,0.52995457 0 0 0 0,0.08443 c 0.0026,0.02784 0.0253,0.03144 0.02705,0.05569 0.0018,0.02604 -0.02969,0.06378 -0.02705,0.08443 0.0061,0.05658 0.04364,0.08803 0.05499,0.140124 0.0087,0.04132 0.0323,0.147309 0.02705,0.196713 -0.0035,0.02604 -0.02356,0.05479 -0.02705,0.08443 -0.0026,0.02336 0.0035,0.03504 0,0.05569 -0.0026,0.02068 0.0052,0.03862 0,0.05569 l -0.08205,-0.05569 a 4.5597922,4.6923435 0 0 1 -0.654622,-0.56137 c -0.02705,-0.02784 -0.05586,-0.05569 -0.08205,-0.08443 a 4.4602868,4.5899455 0 0 1 -0.436435,-0.561379 c -0.01221,-0.01796 -0.0157,-0.03862 -0.02705,-0.05569 a 4.201049,4.3231718 0 0 1 -0.38231,-0.73026 c -0.0079,-0.01888 -0.02009,-0.03683 -0.02705,-0.05569 a 4.3991869,4.5270694 0 0 1 -0.21822,-0.73026 c -0.01046,-0.047607 -0.01834,-0.092519 -0.02705,-0.1401229 a 4.3363414,4.4623972 0 0 1 -0.08205,-0.8146928 c 0,-0.2137796 0.02619,-0.4122867 0.05499,-0.6179811 m 1.691592,0.4769592 c 0.0419,-0.019759 0.03404,0.0503 0,0.055691 -0.0323,0.009 -0.03141,-0.039521 0,-0.055691"
     id="path2"
     style="fill:#dfdfdf;fill-opacity:1;stroke-width:0.88545" />
</svg>
