<?xml version="1.0" encoding="UTF-8" standalone="no"?>
<svg
   xmlns:dc="http://purl.org/dc/elements/1.1/"
   xmlns:cc="http://creativecommons.org/ns#"
   xmlns:rdf="http://www.w3.org/1999/02/22-rdf-syntax-ns#"
   xmlns:svg="http://www.w3.org/2000/svg"
   xmlns="http://www.w3.org/2000/svg"
   xmlns:sodipodi="http://sodipodi.sourceforge.net/DTD/sodipodi-0.dtd"
   xmlns:inkscape="http://www.inkscape.org/namespaces/inkscape"
   version="1.1"
   id="svg2"
   width="29.333332"
   height="42.666668"
   viewBox="0 0 29.333332 42.666668"
   sodipodi:docname="clock.svg"
   inkscape:version="1.0.2 (e86c870879, 2021-01-15)">
  <metadata
     id="metadata8">
    <rdf:RDF>
      <cc:Work
         rdf:about="">
        <dc:format>image/svg+xml</dc:format>
        <dc:type
           rdf:resource="http://purl.org/dc/dcmitype/StillImage" />
        <dc:title></dc:title>
      </cc:Work>
    </rdf:RDF>
  </metadata>
  <defs
     id="defs6" />
  <sodipodi:namedview
     pagecolor="#ffffff"
     bordercolor="#666666"
     borderopacity="1"
     objecttolerance="10"
     gridtolerance="10"
     guidetolerance="10"
     inkscape:pageopacity="0"
     inkscape:pageshadow="2"
     inkscape:window-width="1366"
     inkscape:window-height="687"
     id="namedview4"
     showgrid="false"
     inkscape:zoom="6.7617186"
     inkscape:cx="34.876342"
     inkscape:cy="26.096968"
     inkscape:window-x="0"
     inkscape:window-y="32"
     inkscape:window-maximized="1"
     inkscape:current-layer="g10"
     inkscape:document-rotation="0" />
  <g
     inkscape:groupmode="layer"
     inkscape:label="Image"
     id="g10">
    <rect
       style="fill:#303030;fill-opacity:1;stroke-width:0.998578"
       id="rect870"
       width="29.344591"
       height="30.383844"
       x="0.0075204778"
       y="5.8578544" />
    <path
       d="M 14.754463,11.107495 A 10.054137,9.8401612 0 0 0 4.700327,20.947655 10.054137,9.8401612 0 0 0 14.754463,30.787816 10.054137,9.8401612 0 0 0 24.8086,20.947655 10.054137,9.8401612 0 0 0 14.754463,11.107495 Z m 0,2.811473 a 7.1815262,7.0286865 0 0 1 7.181527,7.028687 7.1815262,7.0286865 0 0 1 -7.181527,7.028686 7.1815262,7.0286865 0 0 1 -7.1815249,-7.028686 7.1815262,7.0286865 0 0 1 7.1815249,-7.028687 z m -1.436305,1.405738 v 6.199301 l 4.007291,3.936065 2.039554,-1.996148 -3.174235,-3.092622 v -5.046596 z"
       fill="#555555"
       id="path337"
       style="stroke-width:1.42094" />
    <path
       style="fill:#f2f2f2;fill-opacity:1;stroke-width:0.0388632"
       d="M 13.871129,30.73156 C 10.071008,30.385644 6.8190445,27.999508 5.4117465,24.524467 5.1579288,23.897713 4.9667044,23.2066 4.8325089,22.431024 4.7328153,21.854835 4.7122613,20.417041 4.7945586,19.776397 5.2585208,16.164719 7.651838,13.140282 11.10164,11.806135 c 1.073427,-0.41513 2.111833,-0.623259 3.31946,-0.665327 2.358484,-0.08216 4.62104,0.642118 6.536208,2.092335 0.186129,0.140942 0.586798,0.499056 0.890375,0.79581 1.508686,1.474776 2.446918,3.258315 2.812004,5.345494 0.102838,0.587915 0.143156,1.93412 0.07677,2.563159 -0.2743,2.598963 -1.623492,5.027031 -3.700338,6.659304 -2.010369,1.580027 -4.642633,2.364252 -7.164981,2.13465 z m 1.473133,-2.764709 c 1.834277,-0.155931 3.43678,-0.919944 4.690807,-2.236397 0.938164,-0.984865 1.554088,-2.197922 1.814771,-3.57418 0.08401,-0.443537 0.115422,-1.504144 0.05855,-1.976899 -0.167813,-1.394829 -0.699605,-2.639884 -1.575443,-3.688492 -0.332117,-0.397631 -0.992555,-1.002469 -1.415441,-1.296281 -1.346285,-0.935364 -3.089878,-1.402992 -4.722284,-1.266509 -0.616775,0.05158 -1.276563,0.182803 -1.794133,0.356861 -0.495299,0.166566 -1.38335,0.612933 -1.808567,0.909049 -0.423557,0.294958 -1.0838508,0.899947 -1.4159565,1.297352 -1.056901,1.264714 -1.6076276,2.788712 -1.6097234,4.454505 -0.00186,1.500971 0.4387224,2.856301 1.3360686,4.10977 0.299431,0.418264 1.1128123,1.233441 1.5309123,1.534293 1.085083,0.780793 2.363255,1.260903 3.6558,1.373203 0.532991,0.0463 0.746284,0.04694 1.254644,0.0038 z"
       id="path1300" />
    <path
       style="fill:#f2f2f2;fill-opacity:1;stroke-width:0.0388632"
       d="M 15.334322,23.478604 13.3408,21.527228 v -3.085273 -3.085274 h 1.414209 1.414208 v 2.508525 2.508524 l 1.581024,1.547732 1.581024,1.54773 -1.00171,0.980394 -1.001712,0.980393 z"
       id="path1302" />
  </g>
</svg>
