<?xml version="1.0" encoding="UTF-8" standalone="no"?>
<svg
   xmlns:dc="http://purl.org/dc/elements/1.1/"
   xmlns:cc="http://creativecommons.org/ns#"
   xmlns:rdf="http://www.w3.org/1999/02/22-rdf-syntax-ns#"
   xmlns:svg="http://www.w3.org/2000/svg"
   xmlns="http://www.w3.org/2000/svg"
   xmlns:sodipodi="http://sodipodi.sourceforge.net/DTD/sodipodi-0.dtd"
   xmlns:inkscape="http://www.inkscape.org/namespaces/inkscape"
   width="16"
   height="16"
   version="1.1"
   id="svg339"
   sodipodi:docname="preferences-system-time-symbolic.svg"
   inkscape:version="1.0.2 (1.0.2+r75+1)">
  <metadata
     id="metadata345">
    <rdf:RDF>
      <cc:Work
         rdf:about="">
        <dc:format>image/svg+xml</dc:format>
        <dc:type
           rdf:resource="http://purl.org/dc/dcmitype/StillImage" />
        <dc:title></dc:title>
      </cc:Work>
    </rdf:RDF>
  </metadata>
  <defs
     id="defs343" />
  <sodipodi:namedview
     pagecolor="#ffffff"
     bordercolor="#666666"
     borderopacity="1"
     objecttolerance="10"
     gridtolerance="10"
     guidetolerance="10"
     inkscape:pageopacity="0"
     inkscape:pageshadow="2"
     inkscape:window-width="1350"
     inkscape:window-height="671"
     id="namedview341"
     showgrid="false"
     inkscape:zoom="18.28125"
     inkscape:cx="16.390755"
     inkscape:cy="5.4968924"
     inkscape:window-x="8"
     inkscape:window-y="40"
     inkscape:window-maximized="0"
     inkscape:current-layer="svg339" />
  <path
     d="M8 1a7 7 0 0 0-7 7 7 7 0 0 0 7 7 7 7 0 0 0 7-7 7 7 0 0 0-7-7zm0 2a5 5 0 0 1 5 5 5 5 0 0 1-5 5 5 5 0 0 1-5-5 5 5 0 0 1 5-5zM7 4v4.41l2.79 2.8 1.42-1.42L9 7.59V4z"
     fill="#555555"
     id="path337" />
  <path
     style="fill:#f2f2f2;fill-opacity:1;stroke-width:0.0273504"
     d="M 7.3849951,14.959981 C 4.7392343,14.713907 2.475116,13.01648 1.4953123,10.544438 1.3185963,10.098584 1.1854596,9.6069468 1.0920295,9.055225 1.0226186,8.6453414 1.0083069,7.6225374 1.0656054,7.1668019 1.3886298,4.5975613 3.0549312,2.446066 5.45679,1.4969916 6.2041434,1.2016812 6.9271134,1.0536237 7.7679011,1.0236977 9.4099496,0.9652526 10.985211,1.4804822 12.31861,2.5121237 c 0.129589,0.1002621 0.408547,0.3550146 0.619907,0.5661168 1.050393,1.0491111 1.703619,2.3178671 1.957803,3.8026255 0.0716,0.418225 0.09967,1.3758758 0.05345,1.8233559 -0.190977,1.8488251 -1.130326,3.5760811 -2.57629,4.7372321 -1.399681,1.123985 -3.2323442,1.68186 -4.9884809,1.518527 z m 1.025641,-1.966732 C 9.6877156,12.882324 10.803428,12.338828 11.676521,11.402342 12.329699,10.701738 12.758524,9.8388052 12.94002,8.8597755 12.998512,8.5442569 13.02038,7.7897719 12.980781,7.4534683 12.863945,6.4612279 12.493695,5.5755335 11.883909,4.829584 11.652679,4.5467209 11.192862,4.1164571 10.898435,3.9074482 9.9611105,3.2420578 8.7471675,2.9094006 7.6106361,3.0064915 7.1812185,3.0431756 6.7218528,3.1365319 6.3615046,3.2603509 6.016663,3.3788418 5.3983735,3.6963736 5.1023246,3.9070218 4.8074315,4.1168474 4.3477143,4.5472168 4.1164916,4.8299204 3.3806452,5.7296001 2.9972123,6.813727 2.9957526,7.9987234 c -0.00132,1.0677456 0.3054525,2.0318876 0.9302121,2.9235686 0.2084737,0.297541 0.7747741,0.877434 1.065868,1.091451 0.7554699,0.555433 1.6453722,0.896969 2.5452822,0.976856 0.3710848,0.03294 0.5195864,0.03339 0.8735212,0.0027 z"
     id="path1300" />
  <path
     style="fill:#f2f2f2;fill-opacity:1;stroke-width:0.0273504"
     d="M 8.403715,9.8004415 7.0157643,8.4122908 V 6.2175186 4.0227464 h 0.9846154 0.9846154 v 1.7844902 1.7844903 l 1.1007579,1.10101 1.100758,1.1010098 -0.697422,0.6974233 -0.6974231,0.697423 z"
     id="path1302" />
</svg>
