<?xml version="1.0" encoding="UTF-8" standalone="no"?>
<svg
   xmlns:dc="http://purl.org/dc/elements/1.1/"
   xmlns:cc="http://creativecommons.org/ns#"
   xmlns:rdf="http://www.w3.org/1999/02/22-rdf-syntax-ns#"
   xmlns:svg="http://www.w3.org/2000/svg"
   xmlns="http://www.w3.org/2000/svg"
   xmlns:sodipodi="http://sodipodi.sourceforge.net/DTD/sodipodi-0.dtd"
   xmlns:inkscape="http://www.inkscape.org/namespaces/inkscape"
   version="1.1"
   id="svg2"
   width="29.333332"
   height="42.666668"
   viewBox="0 0 29.333332 42.666668"
   sodipodi:docname="cpu.svg"
   inkscape:version="1.0.2 (e86c870879, 2021-01-15)">
  <metadata
     id="metadata8">
    <rdf:RDF>
      <cc:Work
         rdf:about="">
        <dc:format>image/svg+xml</dc:format>
        <dc:type
           rdf:resource="http://purl.org/dc/dcmitype/StillImage" />
        <dc:title></dc:title>
      </cc:Work>
    </rdf:RDF>
  </metadata>
  <defs
     id="defs6" />
  <sodipodi:namedview
     pagecolor="#ffffff"
     bordercolor="#666666"
     borderopacity="1"
     objecttolerance="10"
     gridtolerance="10"
     guidetolerance="10"
     inkscape:pageopacity="0"
     inkscape:pageshadow="2"
     inkscape:window-width="1366"
     inkscape:window-height="687"
     id="namedview4"
     showgrid="false"
     inkscape:zoom="9.5625141"
     inkscape:cx="7.9053877"
     inkscape:cy="29.67139"
     inkscape:window-x="0"
     inkscape:window-y="32"
     inkscape:window-maximized="1"
     inkscape:current-layer="g10"
     inkscape:document-rotation="0" />
  <g
     inkscape:groupmode="layer"
     inkscape:label="Image"
     id="g10">
    <rect
       style="fill:#303030;fill-opacity:1;stroke-width:0.998578"
       id="rect870"
       width="29.344591"
       height="30.383844"
       x="0.0075204778"
       y="5.8578544" />
    <path
       style="color:#dfdfdf;fill:currentColor;stroke-width:1.28459"
       class="ColorScheme-Text"
       d="m 8.9101442,10.619495 a 0.3183953,0.34560052 0 0 0 -0.313426,0.351048 v 2.097721 C 7.7961363,13.213741 7.1713797,13.89188 7.0372302,14.760866 H 5.10464 a 0.3183953,0.34560052 0 1 0 0,0.691122 H 7.0048025 V 18.90759 H 5.10464 a 0.3183953,0.34560052 0 1 0 0,0.691122 h 1.9001625 v 3.455604 H 5.10464 a 0.3183953,0.34560052 0 1 0 0,0.69112 H 7.0048025 V 27.20104 H 5.10464 a 0.3183953,0.34560052 0 1 0 0,0.69112 h 1.9325902 c 0.1341001,0.868933 0.7589184,1.547125 1.559488,1.692738 v 2.09772 a 0.3183953,0.34560052 0 1 0 0.636716,0 v -2.062522 h 3.1835838 v 2.062522 a 0.3183953,0.34560052 0 1 0 0.636717,0 v -2.062522 h 3.183582 v 2.062522 a 0.3183953,0.34560052 0 1 0 0.636717,0 v -2.062522 h 3.183583 v 2.062522 a 0.3183953,0.34560052 0 1 0 0.636717,0 v -2.09772 c 0.800532,-0.145558 1.425338,-0.823764 1.559487,-1.692738 h 1.93259 a 0.3183953,0.34560052 0 0 0 0.323328,-0.350954 0.3183953,0.34560052 0 0 0 -0.323328,-0.340166 h -1.900163 v -3.455604 h 1.900163 a 0.3183953,0.34560052 0 0 0 0.323328,-0.350954 0.3183953,0.34560052 0 0 0 -0.323328,-0.340166 h -1.900163 v -3.455604 h 1.900163 a 0.3183953,0.34560052 0 0 0 0.324277,-0.350646 0.3183953,0.34560052 0 0 0 -0.323044,-0.340207 h -1.900163 v -3.455604 h 1.900163 a 0.3183953,0.34560052 0 0 0 0.323044,-0.350914 0.3183953,0.34560052 0 0 0 -0.323044,-0.340207 h -1.93259 C 22.120658,13.892147 21.495531,13.214009 20.69532,13.068397 v -2.09772 a 0.3183953,0.34560052 0 0 0 -0.324277,-0.350914 0.3183953,0.34560052 0 0 0 -0.31318,0.351048 v 2.062521 h -3.183582 v -2.062521 a 0.3183953,0.34560052 0 0 0 -0.323044,-0.351048 0.3183953,0.34560052 0 0 0 -0.313179,0.351048 v 2.062521 h -3.183584 v -2.062521 a 0.3183953,0.34560052 0 0 0 -0.323537,-0.351048 0.3183953,0.34560052 0 0 0 -0.313426,0.351048 v 2.062521 H 9.2339272 v -2.062521 a 0.3183953,0.34560052 0 0 0 -0.32329,-0.351048 z"
       id="path5" />
  </g>
</svg>
