<?xml version="1.0" encoding="UTF-8" standalone="no"?>
<svg
   xmlns:dc="http://purl.org/dc/elements/1.1/"
   xmlns:cc="http://creativecommons.org/ns#"
   xmlns:rdf="http://www.w3.org/1999/02/22-rdf-syntax-ns#"
   xmlns:svg="http://www.w3.org/2000/svg"
   xmlns="http://www.w3.org/2000/svg"
   xmlns:sodipodi="http://sodipodi.sourceforge.net/DTD/sodipodi-0.dtd"
   xmlns:inkscape="http://www.inkscape.org/namespaces/inkscape"
   version="1.1"
   id="svg2"
   width="29.333332"
   height="42.666668"
   viewBox="0 0 29.333332 42.666668"
   sodipodi:docname="disk.svg"
   inkscape:version="1.0.2 (e86c870879, 2021-01-15)">
  <metadata
     id="metadata8">
    <rdf:RDF>
      <cc:Work
         rdf:about="">
        <dc:format>image/svg+xml</dc:format>
        <dc:type
           rdf:resource="http://purl.org/dc/dcmitype/StillImage" />
        <dc:title></dc:title>
      </cc:Work>
    </rdf:RDF>
  </metadata>
  <defs
     id="defs6" />
  <sodipodi:namedview
     pagecolor="#ffffff"
     bordercolor="#666666"
     borderopacity="1"
     objecttolerance="10"
     gridtolerance="10"
     guidetolerance="10"
     inkscape:pageopacity="0"
     inkscape:pageshadow="2"
     inkscape:window-width="1366"
     inkscape:window-height="687"
     id="namedview4"
     showgrid="false"
     inkscape:zoom="9.5625141"
     inkscape:cx="37.969959"
     inkscape:cy="28.048361"
     inkscape:window-x="0"
     inkscape:window-y="32"
     inkscape:window-maximized="1"
     inkscape:current-layer="g10"
     inkscape:document-rotation="0" />
  <g
     inkscape:groupmode="layer"
     inkscape:label="Image"
     id="g10">
    <rect
       style="fill:#303030;fill-opacity:1;stroke-width:0.998578"
       id="rect870"
       width="29.344591"
       height="30.383844"
       x="0.0075204778"
       y="5.8578544" />
    <path
       style="color:#dfdfdf;fill:currentColor;stroke-width:1.30751"
       class="ColorScheme-Text"
       d="m 6.7227731,10.439568 c -0.7192125,0 -1.2982174,0.587325 -1.2982174,1.316872 v 18.436212 c 0,0.729547 0.5790049,1.316872 1.2982174,1.316872 H 22.301382 c 0.719212,0 1.298217,-0.587325 1.298217,-1.316872 V 11.75644 c 0,-0.729547 -0.579005,-1.316872 -1.298217,-1.316872 z m 7.7893039,3.950617 c 2.867943,0 5.19287,2.358335 5.19287,5.267489 0,2.909154 -2.324927,5.267489 -5.19287,5.267489 H 9.3192078 v -5.267489 c 0,-2.909154 2.3249262,-5.267489 5.1928692,-5.267489 z m 0,2.633744 c -1.433971,0 -2.596435,1.179167 -2.596435,2.633745 0,1.454576 1.162464,2.633744 2.596435,2.633744 1.43397,0 2.596436,-1.179168 2.596436,-2.633744 0,-1.454578 -1.162466,-2.633745 -2.596436,-2.633745 z"
       id="path5" />
  </g>
</svg>
