<?xml version="1.0" encoding="UTF-8" standalone="no"?>
<svg
   xmlns:dc="http://purl.org/dc/elements/1.1/"
   xmlns:cc="http://creativecommons.org/ns#"
   xmlns:rdf="http://www.w3.org/1999/02/22-rdf-syntax-ns#"
   xmlns:svg="http://www.w3.org/2000/svg"
   xmlns="http://www.w3.org/2000/svg"
   xmlns:sodipodi="http://sodipodi.sourceforge.net/DTD/sodipodi-0.dtd"
   xmlns:inkscape="http://www.inkscape.org/namespaces/inkscape"
   version="1.1"
   id="svg2"
   width="29.333332"
   height="42.666668"
   viewBox="0 0 29.333332 42.666668"
   sodipodi:docname="mem.svg"
   inkscape:version="1.0.2 (e86c870879, 2021-01-15)">
  <metadata
     id="metadata8">
    <rdf:RDF>
      <cc:Work
         rdf:about="">
        <dc:format>image/svg+xml</dc:format>
        <dc:type
           rdf:resource="http://purl.org/dc/dcmitype/StillImage" />
        <dc:title></dc:title>
      </cc:Work>
    </rdf:RDF>
  </metadata>
  <defs
     id="defs6">
    <rect
       x="3.7902441"
       y="17.124464"
       width="30.72766"
       height="15.037445"
       id="rect257" />
  </defs>
  <sodipodi:namedview
     pagecolor="#ffffff"
     bordercolor="#666666"
     borderopacity="1"
     objecttolerance="10"
     gridtolerance="10"
     guidetolerance="10"
     inkscape:pageopacity="0"
     inkscape:pageshadow="2"
     inkscape:window-width="1366"
     inkscape:window-height="687"
     id="namedview4"
     showgrid="false"
     inkscape:zoom="6.7617186"
     inkscape:cx="37.248736"
     inkscape:cy="31.688901"
     inkscape:window-x="0"
     inkscape:window-y="32"
     inkscape:window-maximized="1"
     inkscape:current-layer="g10"
     inkscape:document-rotation="0" />
  <g
     inkscape:groupmode="layer"
     inkscape:label="Image"
     id="g10">
    <rect
       style="fill:#303030;fill-opacity:1;stroke-width:0.998578"
       id="rect870"
       width="29.344591"
       height="30.383844"
       x="0.0075204778"
       y="5.8578544" />
    <path
       style="color:#dfdfdf;fill:currentColor;stroke-width:1.34022"
       class="ColorScheme-Text"
       d="m 6.3463481,11.757394 c 2.077e-4,-0.192061 0.1449363,-0.346064 0.3243347,-0.345303 l 0.6476447,0.0026 c 0.179398,7.14e-4 0.3235938,0.155996 0.323309,0.348056 l -0.00358,2.426747 -1.2952874,-0.0055 z m 2.5905761,0.01098 c 2.07e-4,-0.19206 0.144937,-0.346064 0.324335,-0.345303 l 0.647644,0.0026 c 0.1793988,7.13e-4 0.3235938,0.155994 0.3233098,0.34805 l -0.0036,2.426752 -1.2952878,-0.0055 z m 2.5905778,0.01099 c 2.74e-4,-0.192062 0.144937,-0.346067 0.324333,-0.345305 l 0.647645,0.0026 c 0.179398,7.15e-4 0.323593,0.155994 0.323311,0.348054 l -0.0036,2.426748 -1.295292,-0.0055 z m 2.590577,0.01098 c 2.07e-4,-0.192062 0.144938,-0.346066 0.324333,-0.345301 l 0.647644,0.0026 c 0.179398,7.12e-4 0.323596,0.155994 0.323311,0.348053 l -0.0036,2.426749 -1.295288,-0.0055 z m 2.590577,0.01098 c 2.77e-4,-0.192058 0.144937,-0.346065 0.324333,-0.345301 l 0.647645,0.0026 c 0.179399,7.14e-4 0.323594,0.155995 0.32331,0.348054 l -0.0036,2.426749 -1.295287,-0.0055 z m 2.590576,0.01099 c 2.76e-4,-0.192061 0.144936,-0.346066 0.324336,-0.345304 l 0.647643,0.0026 c 0.179398,7.14e-4 0.323592,0.155994 0.32331,0.348055 l -0.0036,2.426748 -1.295288,-0.0055 z m 2.590576,0.01098 c 2.77e-4,-0.19206 0.144937,-0.346065 0.324334,-0.345303 l 0.647645,0.0026 c 0.179398,7.14e-4 0.323595,0.156002 0.32331,0.34806 l -0.0036,2.426749 -1.295288,-0.0055 z M 6.3187014,30.478028 c -2.581e-4,0.19206 0.1439119,0.347291 0.3233091,0.348052 l 0.6476446,0.0026 c 0.1793991,7.13e-4 0.324051,-0.153243 0.3243336,-0.345302 l 0.00358,-2.42675 -1.2952873,-0.0055 z m 2.5905758,0.01098 c -2.07e-4,0.192061 0.143913,0.34729 0.323311,0.348053 l 0.647644,0.0026 c 0.1793978,7.13e-4 0.3240498,-0.153246 0.3243328,-0.345304 l 0.0036,-2.42675 -1.2952868,-0.0055 z m 2.5905748,0.01098 c -2.06e-4,0.192064 0.143915,0.347293 0.323312,0.348054 l 0.647645,0.0026 c 0.179398,7.13e-4 0.324049,-0.153244 0.324333,-0.345304 l 0.0036,-2.426748 -1.295287,-0.0055 z m 2.590579,0.01099 c -2.58e-4,0.19206 0.143914,0.347293 0.32331,0.348055 l 0.647645,0.0026 c 0.179397,7.12e-4 0.32405,-0.153243 0.324334,-0.345303 l 0.0036,-2.426749 -1.29529,-0.0055 z m 2.590576,0.01098 c -2.77e-4,0.192059 0.143915,0.347292 0.323311,0.348054 l 0.647644,0.0026 c 0.1794,7.14e-4 0.324051,-0.153242 0.324335,-0.3453 l 0.0036,-2.426751 -1.29529,-0.0055 z m 2.590577,0.01098 c -2.07e-4,0.192062 0.14391,0.347293 0.323312,0.348054 l 0.647643,0.0026 c 0.1794,7.13e-4 0.324049,-0.153242 0.324334,-0.345304 l 0.0036,-2.426745 -1.295286,-0.0055 z m 2.590577,0.01098 c -2.77e-4,0.19206 0.143913,0.347293 0.32331,0.348053 l 0.647644,0.0026 c 0.179399,7.13e-4 0.32405,-0.153245 0.324334,-0.345304 l 0.0036,-2.426748 -1.29529,-0.0055 z m -16.8310377,-5.271595 0.01229,-8.320284 c 0.0011,-0.768238 0.5797468,-1.384259 1.2973362,-1.381213 l 16.8387475,0.07152 c 0.717589,0.0031 1.294373,0.623974 1.293239,1.392212 l -0.01228,8.320283 c -0.0011,0.76824 -0.579746,1.38426 -1.297335,1.381212 L 6.324364,26.664565 C 5.6067745,26.661501 5.0299881,26.04059 5.0311233,25.272351 Z"
       id="path5" />
  </g>
</svg>
