<?xml version="1.0" encoding="UTF-8" standalone="no"?>
<svg
   xmlns:dc="http://purl.org/dc/elements/1.1/"
   xmlns:cc="http://creativecommons.org/ns#"
   xmlns:rdf="http://www.w3.org/1999/02/22-rdf-syntax-ns#"
   xmlns:svg="http://www.w3.org/2000/svg"
   xmlns="http://www.w3.org/2000/svg"
   xmlns:sodipodi="http://sodipodi.sourceforge.net/DTD/sodipodi-0.dtd"
   xmlns:inkscape="http://www.inkscape.org/namespaces/inkscape"
   version="1.1"
   id="svg2"
   width="29.333332"
   height="42.666668"
   viewBox="0 0 29.333332 42.666668"
   sodipodi:docname="temp.svg"
   inkscape:version="1.0.2 (e86c870879, 2021-01-15)">
  <metadata
     id="metadata8">
    <rdf:RDF>
      <cc:Work
         rdf:about="">
        <dc:format>image/svg+xml</dc:format>
        <dc:type
           rdf:resource="http://purl.org/dc/dcmitype/StillImage" />
        <dc:title></dc:title>
      </cc:Work>
    </rdf:RDF>
  </metadata>
  <defs
     id="defs6">
    <rect
       x="3.7902441"
       y="17.124464"
       width="30.72766"
       height="15.037445"
       id="rect257" />
  </defs>
  <sodipodi:namedview
     pagecolor="#ffffff"
     bordercolor="#666666"
     borderopacity="1"
     objecttolerance="10"
     gridtolerance="10"
     guidetolerance="10"
     inkscape:pageopacity="0"
     inkscape:pageshadow="2"
     inkscape:window-width="1366"
     inkscape:window-height="687"
     id="namedview4"
     showgrid="false"
     inkscape:zoom="9.5625141"
     inkscape:cx="19.36154"
     inkscape:cy="14.808355"
     inkscape:window-x="0"
     inkscape:window-y="32"
     inkscape:window-maximized="1"
     inkscape:current-layer="g10"
     inkscape:document-rotation="0" />
  <g
     inkscape:groupmode="layer"
     inkscape:label="Image"
     id="g10">
    <rect
       style="fill:#303030;fill-opacity:1;stroke-width:0.998578"
       id="rect870"
       width="29.344591"
       height="30.383844"
       x="0.0075204778"
       y="5.8578544" />
    <path
       style="fill:#dfdfdf;fill-opacity:1;stroke-width:0.0966908"
       d="m 20.581295,16.892721 c -0.709198,-0.271977 -1.351278,-0.890741 -1.686216,-1.624983 -0.15538,-0.340623 -0.203064,-0.630984 -0.203064,-1.236538 0,-0.946089 0.20451,-1.486737 0.796938,-2.106824 1.437634,-1.504748 3.732392,-1.098162 4.635173,0.821256 0.281634,0.598786 0.29738,0.688859 0.254635,1.456527 -0.0341,0.612351 -0.102514,0.92728 -0.271865,1.251441 -0.30499,0.583796 -0.991428,1.210575 -1.557484,1.422125 -0.554029,0.207057 -1.452295,0.214816 -1.968117,0.017 z m 1.548965,-1.600405 c 1.141219,-0.600136 0.938439,-2.318558 -0.310933,-2.634982 -0.661672,-0.167579 -1.38261,0.285501 -1.567101,0.984861 -0.320301,1.214193 0.813166,2.210105 1.878034,1.650121 z"
       id="path841" />
    <path
       style="fill:#dfdfdf;fill-opacity:1;stroke-width:0.0966908"
       d="M 11.109063,31.917567 C 10.024062,31.612371 9.2199608,31.112598 8.3571603,30.207178 7.0113357,28.794873 6.6105704,27.704571 6.6818524,25.649422 6.7157324,24.672586 6.7581494,24.4247 6.9765701,23.927008 7.3083814,23.170948 7.9327456,22.269763 8.5932732,21.593521 L 9.1214031,21.052822 V 15.97964 10.906455 h 4.1584759 4.158475 v 0.791385 0.791385 h -0.803341 -0.803345 v 0.989229 0.989229 h 0.803345 0.803341 v 0.791386 0.791384 h -0.803341 -0.803345 v 0.989228 0.98923 h 0.803345 0.803341 v 0.791385 0.791385 h -0.803341 -0.803345 v 0.77003 0.770033 l 0.526404,0.540698 c 0.722213,0.741828 1.414687,1.852941 1.648405,2.64496 0.241993,0.820058 0.262614,2.270787 0.04462,3.138655 -0.431294,1.716997 -1.550516,3.150986 -3.101318,3.973522 -1.089632,0.577935 -2.736455,0.778599 -3.840712,0.467988 z m 2.265326,-1.529323 c 0,-0.04767 0.06316,-0.0613 0.140353,-0.0303 0.07719,0.03101 0.419033,-0.08012 0.75964,-0.246956 0.733358,-0.359203 1.612301,-1.198456 1.964523,-1.875815 0.70617,-1.358041 0.704977,-3.130183 -0.003,-4.491744 -0.302679,-0.582075 -1.02171,-1.366644 -1.522456,-1.66122 L 14.34807,21.867266 14.28689,20.467434 c -0.03366,-0.76991 -0.06134,-2.879968 -0.06153,-4.689023 l -2.43e-4,-3.28919 h -1.795676 -1.795705 v 2.605509 c 0,1.433031 -0.02789,3.543214 -0.062,4.6893 l -0.06201,2.08379 -0.366828,0.215796 c -0.611441,0.359696 -1.2674261,1.13077 -1.6484047,1.937618 -0.312315,0.661428 -0.3600512,0.859437 -0.3957834,1.641709 -0.050398,1.103404 0.1435936,1.930473 0.6405804,2.731009 0.5978441,0.962991 1.4183717,1.629445 2.4142487,1.960912 0.423684,0.141018 2.221003,0.16803 2.221003,0.03338 z"
       id="path843" />
    <path
       style="fill:#dfdfdf;fill-opacity:1;stroke-width:0.0966908"
       d="M 11.791133,28.949318 C 11.627834,28.896808 11.287646,28.704832 11.03516,28.522711 9.588495,27.479223 9.757494,25.202237 11.35238,24.248666 l 0.303962,-0.181737 0.02682,-0.945148 0.02683,-0.945151 0.653117,-0.0296 c 0.458591,-0.02079 0.676315,0.0087 0.731013,0.09892 0.04285,0.07069 0.07855,0.509847 0.07934,0.975898 l 0.0015,0.847358 0.373824,0.219911 c 0.48501,0.285316 0.984739,0.901669 1.123172,1.385288 0.369134,1.28957 -0.19045,2.666584 -1.277374,3.143345 -0.408927,0.179369 -1.242165,0.247745 -1.603405,0.131577 z"
       id="path845" />
  </g>
</svg>
